<?xml version="1.0" encoding="UTF-8"?>
<svg xmlns="http://www.w3.org/2000/svg" xmlns:xlink="http://www.w3.org/1999/xlink" width="480px" height="480px" viewBox="0 0 480 480" version="1.1">
<g id="surface1">
<path style=" stroke:none;fill-rule:nonzero;fill:rgb(47.843137%,34.117647%,81.960784%);fill-opacity:1;" d="M 434.917969 212.71875 L 409.113281 199.917969 L 409.113281 139.359375 C 409.070312 101.558594 378.4375 70.921875 340.632812 70.878906 L 139.359375 70.878906 C 101.558594 70.921875 70.921875 101.558594 70.878906 139.359375 L 70.878906 200.160156 L 46.296875 213.34375 C 37.367188 218.128906 31.933594 227.582031 32.296875 237.707031 C 32.660156 247.835938 38.75 256.875 48 261.011719 L 70.886719 271.25 L 70.886719 340.640625 C 70.929688 378.441406 101.5625 409.078125 139.367188 409.121094 L 340.644531 409.121094 C 378.449219 409.078125 409.085938 378.441406 409.125 340.640625 L 409.125 271.390625 L 433.566406 260.933594 C 443.09375 256.859375 449.378906 247.617188 449.671875 237.261719 C 449.964844 226.90625 444.210938 217.324219 434.929688 212.71875 Z M 423.480469 237.394531 L 391.277344 251.175781 C 386.566406 253.191406 383.511719 257.820312 383.511719 262.945312 L 383.511719 340.640625 C 383.492188 364.3125 364.308594 383.5 340.632812 383.519531 L 139.359375 383.519531 C 115.6875 383.5 96.5 364.3125 96.480469 340.640625 L 96.480469 262.945312 C 96.480469 257.894531 93.515625 253.320312 88.910156 251.257812 L 58.445312 237.636719 C 58.109375 237.488281 57.886719 237.160156 57.871094 236.792969 C 57.859375 236.421875 58.054688 236.078125 58.378906 235.902344 L 89.742188 219.109375 C 93.898438 216.882812 96.492188 212.550781 96.492188 207.832031 L 96.492188 139.355469 C 96.515625 115.679688 115.699219 96.496094 139.371094 96.472656 L 340.652344 96.472656 C 364.324219 96.496094 383.511719 115.679688 383.53125 139.355469 L 383.53125 207.832031 C 383.53125 212.691406 386.285156 217.132812 390.636719 219.296875 L 423.550781 235.640625 C 423.890625 235.808594 424.097656 236.160156 424.085938 236.535156 C 424.074219 236.910156 423.847656 237.246094 423.5 237.394531 Z M 423.480469 237.394531 "/>
<path style=" stroke:none;fill-rule:nonzero;fill:rgb(47.843137%,34.117647%,81.960784%);fill-opacity:1;" d="M 308.027344 196.839844 C 307.992188 166.242188 283.195312 141.449219 252.601562 141.414062 L 184.761719 141.414062 C 177.691406 141.414062 171.960938 147.144531 171.960938 154.214844 L 171.960938 239.460938 C 171.960938 239.640625 171.960938 239.820312 171.960938 240 C 171.960938 240.179688 171.960938 240.359375 171.960938 240.539062 L 171.960938 325.761719 C 171.960938 332.828125 177.691406 338.558594 184.761719 338.558594 L 252.601562 338.558594 C 276.105469 338.574219 297.058594 323.753906 304.875 301.585938 C 312.695312 279.421875 305.671875 254.734375 287.359375 240 C 300.433594 229.488281 308.035156 213.613281 308.027344 196.839844 Z M 197.574219 167.039062 L 252.613281 167.039062 C 269.085938 167.039062 282.4375 180.394531 282.4375 196.863281 C 282.4375 213.335938 269.085938 226.6875 252.613281 226.6875 L 197.574219 226.6875 Z M 252.613281 313.011719 L 197.574219 313.011719 L 197.574219 253.363281 L 252.613281 253.363281 C 269.085938 253.363281 282.4375 266.714844 282.4375 283.1875 C 282.4375 299.660156 269.085938 313.011719 252.613281 313.011719 Z M 252.613281 313.011719 "/>
</g>
</svg>
