<?xml version="1.0" encoding="UTF-8"?>
<svg xmlns="http://www.w3.org/2000/svg" xmlns:xlink="http://www.w3.org/1999/xlink" width="480px" height="480px" viewBox="0 0 480 480" version="1.1">
<g id="surface1">
<path style=" stroke:none;fill-rule:nonzero;fill:rgb(7.843137%,51.764706%,28.627451%);fill-opacity:1;" d="M 406.378906 126.359375 L 334.058594 126.339844 L 334.058594 272.660156 C 334.058594 337.140625 330.78125 361.679688 320.441406 382.859375 C 310.578125 403.558594 295.078125 417.039062 263.140625 432.441406 L 330.300781 465.160156 C 362.238281 448.800781 377.738281 433.878906 389.480469 410.300781 C 402.160156 385.761719 406.378906 357.359375 406.378906 298.179688 Z M 406.378906 126.359375 "/>
<path style=" stroke:none;fill-rule:nonzero;fill:rgb(7.843137%,51.764706%,28.627451%);fill-opacity:1;" d="M 284.921875 362.078125 L 284.921875 15.238281 L 212.058594 15.238281 L 212.058594 119.320312 C 201.199219 116.261719 192.199219 115.238281 180.378906 115.238281 C 104.199219 115.238281 55 167.039062 55 246.78125 C 55 329.558594 101.359375 372.738281 190.320312 372.738281 C 220.121094 372.738281 247.558594 369.679688 284.921875 362.078125 Z M 129.28125 245.238281 C 129.28125 202.578125 150.558594 178.199219 187.460938 178.199219 L 187.398438 178.199219 C 187.921875 178.179688 188.421875 178.179688 188.941406 178.179688 C 197.21875 178.179688 205.160156 179.679688 212.078125 182.261719 L 212.078125 307.699219 C 201.679688 309.238281 195.058594 309.738281 187.019531 309.738281 C 149.640625 309.738281 129.28125 286.898438 129.28125 245.238281 Z M 129.28125 245.238281 "/>
<path style=" stroke:none;fill-rule:nonzero;fill:rgb(7.843137%,51.764706%,28.627451%);fill-opacity:1;" d="M 330.21875 12.738281 L 408.160156 12.738281 L 408.160156 93.261719 L 330.21875 93.261719 Z M 330.21875 12.738281 "/>
<path style=" stroke:none;fill-rule:nonzero;fill:rgb(0%,0%,0%);fill-opacity:1;" d="M 329.640625 480.160156 C 327.398438 480.160156 325.121094 479.660156 323.058594 478.640625 L 256.558594 446.140625 C 251.398438 443.621094 248.121094 438.378906 248.140625 432.640625 C 248.160156 426.898438 251.441406 421.660156 256.621094 419.160156 C 285.058594 405.398438 298.058594 394.378906 306.339844 376.960938 C 315.578125 358 318.378906 333.960938 318.378906 273.921875 L 318.378906 128.539062 C 318.378906 120.261719 325.101562 113.539062 333.378906 113.539062 L 405 113.539062 C 413.28125 113.539062 420 120.28125 420 128.558594 L 420 299.261719 C 420 360.980469 415.359375 390.839844 401.601562 417.539062 C 388.441406 444.078125 370.160156 461.238281 336.5 478.5 C 334.359375 479.601562 332 480.160156 329.640625 480.160156 Z M 295.539062 431.78125 L 329.359375 448.320312 C 353.019531 435.320312 365.28125 423.199219 374.800781 403.980469 C 386.160156 381.898438 389.980469 355.539062 389.980469 299.238281 L 389.980469 143.558594 L 348.359375 143.539062 L 348.359375 273.898438 C 348.359375 340.019531 345 366.058594 333.378906 389.960938 C 325.359375 406.859375 313.941406 419.738281 295.539062 431.78125 Z M 295.539062 431.78125 "/>
<path style=" stroke:none;fill-rule:nonzero;fill:rgb(0%,0%,0%);fill-opacity:1;" d="M 190.359375 380.421875 C 93.398438 380.421875 40 333.039062 40 247.039062 C 40 164.121094 96.421875 108.421875 180.421875 108.421875 C 186.519531 108.421875 191.941406 108.679688 197.140625 109.238281 L 197.140625 15.160156 C 197.140625 6.878906 203.859375 0.160156 212.140625 0.160156 L 285.019531 0.160156 C 293.300781 0.160156 300.019531 6.878906 300.019531 15.160156 L 300.019531 355.398438 C 300.019531 362.601562 294.898438 368.78125 287.839844 370.140625 C 249.601562 377.441406 221.359375 380.421875 190.359375 380.421875 Z M 285 355.398438 L 285.199219 355.398438 Z M 180.421875 138.421875 C 112.320312 138.421875 70 180.039062 70 247.039062 C 70 316.601562 109.378906 350.398438 190.359375 350.398438 C 216 350.398438 239.800781 348.199219 270 342.878906 L 270 30.160156 L 227.121094 30.160156 L 227.121094 127.238281 C 227.121094 131.878906 224.980469 136.28125 221.28125 139.121094 C 217.578125 141.960938 212.78125 142.898438 208.320312 141.761719 C 199.078125 139.320312 191.519531 138.421875 180.421875 138.421875 Z M 187.058594 321.199219 C 141.519531 321.199219 114.320312 292.941406 114.320312 245.601562 C 114.320312 197.519531 142.300781 167.660156 187.378906 167.601562 C 187.398438 167.601562 187.421875 167.601562 187.441406 167.601562 C 187.398438 167.519531 188.839844 167.558594 188.980469 167.558594 C 198.640625 167.558594 208.378906 169.179688 217.101562 172.238281 C 223.101562 174.339844 227.121094 180.019531 227.121094 186.398438 L 227.121094 304.300781 C 227.121094 311.800781 221.601562 318.140625 214.179688 319.160156 C 203.359375 320.640625 196.019531 321.199219 187.058594 321.199219 Z M 187.519531 197.578125 C 158.839844 197.578125 144.320312 213.738281 144.320312 245.578125 C 144.320312 276.699219 157.898438 291.179688 187.058594 291.179688 C 190.601562 291.179688 193.78125 291.078125 197.140625 290.839844 L 197.140625 198.140625 C 194.28125 197.738281 191.359375 197.71875 188.460938 197.558594 C 188.140625 197.578125 187.839844 197.578125 187.519531 197.578125 Z M 405 105.78125 L 333.378906 105.78125 C 325.101562 105.78125 318.378906 99.058594 318.378906 90.78125 L 318.378906 15.238281 C 318.378906 6.960938 325.101562 0.238281 333.378906 0.238281 L 405 0.238281 C 413.28125 0.238281 420 6.960938 420 15.238281 L 420 90.78125 C 420 99.058594 413.28125 105.78125 405 105.78125 Z M 348.378906 75.78125 L 390 75.78125 L 390 30.238281 L 348.378906 30.238281 Z M 348.378906 75.78125 "/>
</g>
</svg>
