<?xml version="1.0" encoding="UTF-8"?>
<svg xmlns="http://www.w3.org/2000/svg" xmlns:xlink="http://www.w3.org/1999/xlink" width="480px" height="480px" viewBox="0 0 480 487" version="1.1">
<defs>
<clipPath id="clip1">
  <path d="M 165 359 L 316 359 L 316 422 L 165 422 Z M 165 359 "/>
</clipPath>
<clipPath id="clip2">
  <path d="M 183.9375 458.613281 C 186.9375 472.664062 194.25 480.910156 201.5625 485.78125 L 278.625 485.78125 C 288 479.410156 297.5625 467.421875 297.5625 444.9375 L 297.5625 386.863281 C 297.5625 386.863281 298.6875 372.4375 312 367.753906 C 312 367.753906 319.6875 362.320312 311.4375 359.324219 C 311.4375 359.324219 274.875 356.324219 274.875 386.300781 L 274.875 430.515625 C 274.875 430.515625 276.375 446.8125 267.75 453.558594 L 267.75 398.851562 C 267.75 398.851562 268.3125 381.429688 277.3125 374.871094 C 277.3125 374.871094 283.3125 364.195312 270.1875 367.003906 C 270.1875 367.003906 245.0625 370.5625 243.9375 399.976562 L 243.375 456.179688 L 237.375 456.179688 L 236.8125 399.976562 C 235.6875 370.75 210.5625 367.003906 210.5625 367.003906 C 197.4375 364.007812 203.4375 374.871094 203.4375 374.871094 C 212.4375 381.429688 213 398.851562 213 398.851562 L 213 454.117188 C 204.375 447.9375 205.875 430.515625 205.875 430.515625 L 205.875 386.300781 C 205.875 356.324219 169.3125 359.324219 169.3125 359.324219 C 160.875 362.320312 168.75 367.753906 168.75 367.753906 C 181.875 372.625 183.1875 386.863281 183.1875 386.863281 L 183.1875 427.515625 Z M 183.9375 458.613281 "/>
</clipPath>
</defs>
<g id="surface1">
<path style=" stroke:none;fill-rule:nonzero;fill:rgb(61.960784%,86.27451%,94.901961%);fill-opacity:1;" d="M 376.6875 374.3125 C 376.6875 400.351562 316.3125 421.335938 241.875 421.335938 C 167.4375 421.335938 107.0625 400.164062 107.0625 374.3125 C 107.0625 348.269531 167.4375 327.289062 241.875 327.289062 C 316.3125 327.289062 376.6875 348.269531 376.6875 374.3125 Z M 376.6875 374.3125 "/>
<g clip-path="url(#clip1)" clip-rule="nonzero">
<g clip-path="url(#clip2)" clip-rule="nonzero">
<path style=" stroke:none;fill-rule:nonzero;fill:rgb(49.019608%,73.72549%,90.588235%);fill-opacity:1;" d="M 376.6875 374.3125 C 376.6875 400.351562 316.3125 421.335938 241.875 421.335938 C 167.4375 421.335938 107.0625 400.164062 107.0625 374.3125 C 107.0625 348.269531 167.4375 327.289062 241.875 327.289062 C 316.3125 327.289062 376.6875 348.269531 376.6875 374.3125 Z M 376.6875 374.3125 "/>
</g>
</g>
<path style=" stroke:none;fill-rule:nonzero;fill:rgb(61.960784%,86.27451%,94.901961%);fill-opacity:1;" d="M 87.9375 235.863281 L 84 249.351562 C 84 249.351562 83.0625 254.222656 87.5625 255.160156 C 92.4375 254.972656 92.0625 250.476562 91.6875 249.164062 Z M 87.9375 235.863281 "/>
<path style=" stroke:none;fill-rule:nonzero;fill:rgb(0.392157%,0.392157%,0.392157%);fill-opacity:1;" d="M 479.625 179.101562 L 480 177.414062 C 440.4375 169.546875 399.9375 169.359375 375.375 170.480469 C 379.3125 156.054688 380.625 139.195312 380.625 120.648438 C 380.625 93.859375 370.5 72.5 354.375 56.390625 C 357.1875 47.210938 360.9375 26.789062 350.625 0.75 C 350.625 0.75 332.25 -5.058594 290.4375 22.855469 C 274.125 18.734375 256.6875 16.671875 239.25 16.671875 C 220.125 16.671875 200.8125 19.109375 182.625 23.980469 C 139.5 -5.433594 120.5625 0.5625 120.5625 0.5625 C 108.1875 31.472656 115.875 54.515625 118.125 60.136719 C 103.5 75.875 94.6875 95.917969 94.6875 120.460938 C 94.6875 139.007812 96.75 155.683594 102 170.105469 C 77.25 169.171875 38.25 169.546875 0 177.226562 L 0.375 178.914062 C 38.625 171.230469 78 171.042969 102.5625 171.980469 C 103.6875 174.976562 105 177.976562 106.3125 180.785156 C 81.9375 181.535156 40.5 184.71875 0.75 195.960938 L 1.3125 197.648438 C 41.4375 186.40625 83.25 183.410156 107.4375 182.660156 C 122.0625 209.636719 150.5625 227.246094 201.5625 232.679688 C 194.25 237.550781 186.9375 245.792969 183.9375 259.84375 C 174 264.527344 142.875 276.144531 124.125 243.921875 C 124.125 243.921875 113.625 224.8125 93.5625 223.3125 C 93.5625 223.3125 74.0625 222.9375 92.25 235.488281 C 92.25 235.488281 105.1875 241.671875 114.1875 264.714844 C 114.1875 264.714844 126 304.058594 182.4375 291.316406 L 182.4375 331.597656 C 182.4375 331.597656 181.3125 346.023438 168 350.707031 C 168 350.707031 160.125 356.140625 168.5625 359.136719 C 168.5625 359.136719 205.125 362.132812 205.125 332.160156 L 205.125 287.945312 C 205.125 287.945312 203.625 270.335938 212.25 264.339844 L 212.25 337.03125 C 212.25 337.03125 211.6875 354.453125 202.6875 361.007812 C 202.6875 361.007812 196.6875 371.6875 209.8125 368.878906 C 209.8125 368.878906 234.9375 365.320312 236.0625 335.90625 L 236.625 262.28125 L 242.625 262.28125 L 243.1875 335.90625 C 244.3125 365.132812 269.4375 368.878906 269.4375 368.878906 C 282.5625 371.875 276.5625 361.007812 276.5625 361.007812 C 267.5625 354.453125 267 337.03125 267 337.03125 L 267 264.902344 C 275.625 271.648438 274.125 287.945312 274.125 287.945312 L 274.125 332.160156 C 274.125 362.132812 310.6875 359.136719 310.6875 359.136719 C 319.125 356.140625 311.25 350.707031 311.25 350.707031 C 298.125 345.835938 296.8125 331.597656 296.8125 331.597656 L 296.8125 273.519531 C 296.8125 250.851562 287.25 238.863281 277.875 232.679688 C 332.25 227.246094 358.3125 209.824219 370.3125 182.472656 C 394.125 183.035156 437.0625 186.03125 477.9375 197.648438 L 478.5 195.960938 C 437.8125 184.53125 395.25 181.535156 371.0625 180.785156 C 372.1875 177.976562 373.125 175.164062 374.0625 172.167969 C 399.1875 171.230469 439.875 171.230469 479.625 179.101562 Z M 479.625 179.101562 "/>
<path style=" stroke:none;fill-rule:nonzero;fill:rgb(96.078431%,80%,70.196078%);fill-opacity:1;" d="M 327.375 119.335938 C 339 130.015625 345.9375 142.753906 345.9375 156.429688 C 345.9375 220.878906 297.9375 222.5625 238.6875 222.5625 C 179.4375 222.5625 131.4375 213.570312 131.4375 156.429688 C 131.4375 142.753906 138.1875 130.015625 149.8125 119.523438 C 169.125 101.914062 201.75 111.28125 238.6875 111.28125 C 275.625 111.28125 308.0625 101.726562 327.375 119.335938 Z M 327.375 119.335938 "/>
<path style=" stroke:none;fill-rule:nonzero;fill:rgb(100%,100%,100%);fill-opacity:1;" d="M 203.0625 159.804688 C 203.0625 177.601562 193.125 191.839844 180.75 191.839844 C 168.375 191.839844 158.4375 177.414062 158.4375 159.804688 C 158.4375 142.003906 168.375 127.769531 180.75 127.769531 C 193.125 127.582031 203.0625 142.003906 203.0625 159.804688 Z M 203.0625 159.804688 "/>
<path style=" stroke:none;fill-rule:nonzero;fill:rgb(68.627451%,36.078431%,31.764706%);fill-opacity:1;" d="M 195.9375 160.179688 C 195.9375 171.980469 189.1875 181.535156 181.125 181.535156 C 172.875 181.535156 166.3125 171.980469 166.3125 160.179688 C 166.3125 148.375 173.0625 138.820312 181.125 138.820312 C 189.1875 138.820312 195.9375 148.375 195.9375 160.179688 Z M 195.9375 160.179688 "/>
<path style=" stroke:none;fill-rule:nonzero;fill:rgb(100%,100%,100%);fill-opacity:1;" d="M 322.875 159.804688 C 322.875 177.601562 312.9375 191.839844 300.5625 191.839844 C 288.1875 191.839844 278.25 177.414062 278.25 159.804688 C 278.25 142.003906 288.1875 127.769531 300.5625 127.769531 C 312.75 127.582031 322.875 142.003906 322.875 159.804688 Z M 322.875 159.804688 "/>
<path style=" stroke:none;fill-rule:nonzero;fill:rgb(68.627451%,36.078431%,31.764706%);fill-opacity:1;" d="M 315.5625 160.179688 C 315.5625 171.980469 308.8125 181.535156 300.75 181.535156 C 292.5 181.535156 285.9375 171.980469 285.9375 160.179688 C 285.9375 148.375 292.6875 138.820312 300.75 138.820312 C 309 138.820312 315.5625 148.375 315.5625 160.179688 Z M 244.6875 188.28125 C 244.6875 191.277344 242.25 193.898438 239.0625 193.898438 C 236.0625 193.898438 233.4375 191.464844 233.4375 188.28125 C 233.4375 185.09375 235.875 182.660156 239.0625 182.660156 C 242.0625 182.660156 244.6875 185.09375 244.6875 188.28125 Z M 226.125 202.332031 C 225.75 201.394531 226.3125 200.457031 227.25 200.082031 C 228.1875 199.707031 229.125 200.269531 229.5 201.207031 C 231 205.328125 234.75 207.949219 239.0625 207.949219 C 243.375 207.949219 247.125 205.140625 248.625 201.207031 C 249 200.269531 249.9375 199.707031 250.875 200.082031 C 251.8125 200.457031 252.375 201.394531 252 202.332031 C 250.125 207.761719 244.875 211.511719 239.0625 211.511719 C 233.25 211.511719 228 207.761719 226.125 202.332031 Z M 226.125 202.332031 "/>
<path style=" stroke:none;fill-rule:nonzero;fill:rgb(76.862745%,89.803922%,85.098039%);fill-opacity:1;" d="M 102.1875 227.808594 C 102.1875 229.308594 100.5 230.433594 98.25 230.433594 C 96.1875 230.433594 94.3125 229.308594 94.3125 227.808594 C 94.3125 226.308594 96 225.1875 98.25 225.1875 C 100.5 225.1875 102.1875 226.308594 102.1875 227.808594 Z M 113.0625 233.804688 C 113.0625 235.300781 111.375 236.425781 109.125 236.425781 C 107.0625 236.425781 105.1875 235.300781 105.1875 233.804688 C 105.1875 232.304688 106.875 231.179688 109.125 231.179688 C 111.375 231.179688 113.0625 232.304688 113.0625 233.804688 Z M 119.625 241.671875 C 119.625 243.171875 117.9375 244.296875 115.6875 244.296875 C 113.625 244.296875 111.75 243.171875 111.75 241.671875 C 111.75 240.171875 113.4375 239.050781 115.6875 239.050781 C 117.9375 238.863281 119.625 240.171875 119.625 241.671875 Z M 125.625 250.664062 C 125.625 252.164062 123.9375 253.289062 121.6875 253.289062 C 119.625 253.289062 117.75 252.164062 117.75 250.664062 C 117.75 249.164062 119.4375 248.042969 121.6875 248.042969 C 123.9375 247.855469 125.625 249.164062 125.625 250.664062 Z M 132.1875 258.90625 C 132.1875 260.40625 130.5 261.53125 128.25 261.53125 C 126.1875 261.53125 124.3125 260.40625 124.3125 258.90625 C 124.3125 257.410156 126 256.285156 128.25 256.285156 C 130.5 256.285156 132.1875 257.410156 132.1875 258.90625 Z M 141.1875 266.214844 C 141.1875 267.710938 139.5 268.835938 137.25 268.835938 C 135.1875 268.835938 133.3125 267.710938 133.3125 266.214844 C 133.3125 264.714844 135 263.589844 137.25 263.589844 C 139.5 263.402344 141.1875 264.714844 141.1875 266.214844 Z M 153.75 270.898438 C 153.75 272.394531 152.0625 273.519531 149.8125 273.519531 C 147.75 273.519531 145.875 272.394531 145.875 270.898438 C 145.875 269.398438 147.5625 268.273438 149.8125 268.273438 C 152.0625 268.273438 153.75 269.398438 153.75 270.898438 Z M 166.3125 270.898438 C 166.3125 272.394531 164.625 273.519531 162.375 273.519531 C 160.3125 273.519531 158.4375 272.394531 158.4375 270.898438 C 158.4375 269.398438 160.125 268.273438 162.375 268.273438 C 164.625 268.273438 166.3125 269.398438 166.3125 270.898438 Z M 179.0625 268.835938 C 179.0625 270.335938 177.375 271.460938 175.125 271.460938 C 173.0625 271.460938 171.1875 270.335938 171.1875 268.835938 C 171.1875 267.339844 172.875 266.214844 175.125 266.214844 C 177.1875 266.214844 179.0625 267.339844 179.0625 268.835938 Z M 179.0625 268.835938 "/>
</g>
</svg>
