<?xml version="1.0" encoding="UTF-8"?>
<svg xmlns="http://www.w3.org/2000/svg" xmlns:xlink="http://www.w3.org/1999/xlink" width="480px" height="480px" viewBox="0 0 480 480" version="1.1">
<g id="surface1">
<rect x="0" y="0" width="480" height="480" style="fill:rgb(94.117647%,85.098039%,12.156863%);fill-opacity:1;stroke:none;"/>
<path style=" stroke:none;fill-rule:nonzero;fill:rgb(81.960784%,74.117647%,10.588235%);fill-opacity:1;" d="M 240 0 L 0 0 L 0 480 L 240 480 Z M 240 0 "/>
<path style=" stroke:none;fill-rule:nonzero;fill:rgb(0%,0%,0%);fill-opacity:1;" d="M 395.679688 372.578125 C 390.578125 353.359375 350.660156 348.878906 323.359375 328.480469 C 295.761719 309.878906 289.179688 264.878906 311.980469 239.058594 C 319.78125 229.460938 332.660156 222.261719 346.179688 218.960938 L 360.28125 217.179688 C 387.578125 216.558594 404.359375 223.761719 416.960938 237.859375 C 420.601562 241.441406 423.28125 245.058594 428.679688 253.460938 C 414.261719 262.441406 414.261719 262.441406 393.578125 275.960938 C 389.058594 266.359375 381.859375 260.359375 374.058594 257.960938 C 362.058594 254.359375 346.761719 258.238281 343.761719 271.160156 C 342.578125 275.058594 342.859375 278.660156 344.679688 285.261719 C 349.539062 296.359375 365.898438 301.160156 380.621094 308.058594 C 422.921875 325.238281 437.160156 343.621094 440.679688 365.519531 L 439.761719 364.179688 C 443.078125 383.078125 438.859375 395.378906 438.28125 397.179688 C 422.660156 450.578125 335.660156 452.378906 300.859375 417.28125 C 293.660156 408.878906 288.859375 404.679688 284.660156 395.101562 L 321.261719 374.078125 C 331.160156 389.078125 340.140625 397.199219 356.359375 400.800781 C 378.28125 403.480469 400.480469 395.980469 395.679688 372.578125 Z M 162.660156 379.519531 C 163 379.519531 163.941406 381.339844 165.199219 383.441406 C 169.859375 391.21875 173.878906 396.621094 181.800781 400.539062 C 189.519531 402.960938 206.519531 404.71875 213.121094 390.941406 C 217.121094 384 215.859375 361.359375 215.859375 336.71875 C 215.859375 297.898438 216.039062 259.378906 216.039062 220.621094 L 261 220.621094 L 260.898438 221.738281 C 260.898438 263.140625 261.140625 304.238281 260.898438 345.320312 C 261.019531 370.839844 263.160156 393.640625 252.960938 412.238281 C 245.898438 426.621094 232.398438 435.921875 216.738281 440.460938 C 192.679688 445.859375 169.699219 442.558594 152.601562 432.359375 C 141.121094 425.460938 132.21875 414.621094 126.121094 402.019531 Z M 162.660156 379.519531 "/>
<path style=" stroke:none;fill-rule:nonzero;fill:rgb(12.941176%,12.941176%,12.941176%);fill-opacity:1;" d="M 363.480469 217.140625 C 362.441406 217.140625 361.359375 217.160156 360.28125 217.179688 L 346.179688 218.960938 C 332.660156 222.261719 319.78125 229.460938 311.980469 239.058594 C 289.179688 264.878906 295.761719 309.878906 323.359375 328.480469 C 323.601562 328.660156 323.859375 328.839844 324.101562 329.039062 L 418.578125 329.039062 C 409.558594 321.761719 397.261719 314.820312 380.621094 308.058594 C 365.878906 301.160156 349.539062 296.359375 344.679688 285.261719 C 342.859375 278.660156 342.578125 275.058594 343.761719 271.160156 C 346.058594 261.28125 355.539062 256.679688 365.261719 256.679688 C 368.238281 256.679688 371.238281 257.121094 374.058594 257.960938 C 381.859375 260.359375 389.058594 266.359375 393.578125 275.960938 C 414.261719 262.441406 414.261719 262.441406 428.679688 253.460938 C 423.28125 245.058594 420.601562 241.460938 416.960938 237.859375 C 404.859375 224.320312 388.898438 217.140625 363.480469 217.140625 Z M 261.019531 220.621094 L 216.058594 220.621094 C 216.058594 256.820312 215.898438 292.820312 215.878906 329.039062 L 261 329.039062 C 261.121094 293.378906 260.921875 257.679688 260.921875 221.738281 Z M 261.019531 220.621094 "/>
</g>
</svg>
