<?xml version="1.0" encoding="UTF-8"?>
<svg xmlns="http://www.w3.org/2000/svg" xmlns:xlink="http://www.w3.org/1999/xlink" width="480px" height="480px" viewBox="0 0 480 480" version="1.1">
<g id="surface1">
<path style=" stroke:none;fill-rule:nonzero;fill:rgb(7.058824%,40%,66.27451%);fill-opacity:1;" d="M 28.121094 326.921875 C 28.578125 327.960938 29.101562 328.921875 29.660156 329.878906 C 29.921875 330.441406 30.28125 331.019531 30.601562 331.539062 C 31.121094 332.578125 31.679688 333.578125 32.21875 334.578125 L 35.359375 339.859375 C 35.941406 340.839844 36.5 341.800781 37.160156 342.761719 C 38.261719 344.640625 39.558594 346.480469 40.699219 348.359375 C 41.21875 349.140625 41.699219 349.921875 42.28125 350.699219 C 44.480469 354.121094 46.480469 356.960938 48.621094 359.71875 C 50.140625 361.78125 51.660156 363.800781 53.300781 365.820312 C 53.839844 366.578125 54.441406 367.339844 55 368.101562 L 59.421875 373.460938 C 59.960938 374.078125 60.5 374.800781 61.078125 375.441406 C 63.039062 377.800781 65.121094 380.078125 67.199219 382.398438 C 67.199219 382.441406 67.261719 382.480469 67.300781 382.539062 C 69.878906 385.78125 72.660156 388.660156 75.699219 391.21875 L 75.78125 391.300781 C 77.378906 392.941406 78.980469 394.558594 80.679688 396.160156 L 82.699219 398.101562 C 84.921875 400.179688 87.140625 402.238281 89.480469 404.238281 C 89.519531 404.238281 89.539062 404.28125 89.578125 404.300781 L 90.71875 405.300781 C 92.761719 407.078125 94.820312 408.839844 96.921875 410.480469 L 99.421875 412.578125 C 101.121094 413.941406 102.878906 415.21875 104.621094 416.558594 L 107.339844 418.640625 C 109.199219 420.039062 111.179688 421.398438 113.078125 422.761719 C 113.78125 423.261719 114.480469 423.761719 115.199219 424.21875 L 115.78125 424.679688 L 121.398438 428.359375 L 123.800781 429.960938 C 126.738281 431.839844 129.660156 433.601562 132.578125 435.359375 C 133.421875 435.78125 134.261719 436.238281 135.039062 436.71875 C 137.199219 437.960938 139.441406 439.21875 141.621094 440.359375 C 142.820312 441.039062 144.058594 441.621094 145.300781 442.238281 C 146.800781 443.078125 148.359375 443.898438 149.960938 444.738281 C 150.398438 444.878906 150.761719 445.019531 151.121094 445.21875 L 151.199219 445.140625 C 151.859375 445.441406 152.480469 445.761719 153.121094 446.078125 C 155.519531 447.28125 158.019531 448.421875 160.621094 449.539062 C 161.101562 449.738281 161.621094 449.941406 162.140625 450.21875 C 165.019531 451.480469 167.898438 452.679688 170.878906 453.839844 C 171.558594 454.039062 172.28125 454.378906 172.980469 454.640625 C 175.679688 455.660156 178.460938 456.699219 181.21875 457.679688 L 182.21875 458.039062 C 185.28125 459.078125 188.300781 460.078125 191.421875 461.019531 C 192.140625 461.21875 192.878906 461.480469 193.640625 461.679688 C 196.820312 462.640625 199.898438 463.78125 203.121094 464.378906 C 408.578125 501.640625 468.28125 341.460938 468.28125 341.460938 C 418.121094 406.460938 329.101562 423.601562 244.800781 404.519531 C 241.679688 403.800781 238.558594 402.800781 235.398438 401.878906 C 230.941406 400.617188 226.519531 399.222656 222.140625 397.699219 L 224.039062 398.28125 L 222.800781 397.800781 C 220.078125 396.878906 217.460938 395.859375 214.800781 394.839844 C 214.148438 394.5625 213.488281 394.308594 212.820312 394.078125 L 212.601562 394.019531 C 209.660156 392.839844 206.800781 391.640625 203.960938 390.378906 C 203.339844 390.179688 202.820312 389.898438 202.199219 389.660156 C 198.835938 388.195312 195.503906 386.660156 192.199219 385.058594 L 194.960938 386.28125 C 194.238281 385.960938 193.53125 385.613281 192.839844 385.238281 C 190.960938 384.359375 189.078125 383.359375 187.238281 382.421875 C 185.839844 381.757812 184.457031 381.050781 183.101562 380.300781 L 183.5 380.5 C 181.238281 379.300781 178.980469 378 176.699219 376.78125 C 176.019531 376.300781 175.238281 375.898438 174.460938 375.460938 C 171.070312 373.488281 167.722656 371.449219 164.421875 369.339844 L 165.679688 370.101562 C 164.832031 369.578125 164.007812 369.023438 163.199219 368.441406 L 163.320312 368.519531 C 161.171875 367.199219 159.0625 365.8125 157 364.359375 C 156.320312 363.921875 155.699219 363.441406 155 362.960938 C 152.84375 361.488281 150.722656 359.96875 148.640625 358.398438 L 149.121094 358.738281 C 148.28125 358.058594 147.378906 357.421875 146.480469 356.761719 C 144.71875 355.378906 142.941406 354.058594 141.179688 352.621094 L 138.820312 350.738281 C 136.304688 348.738281 133.835938 346.679688 131.421875 344.558594 L 131.398438 344.539062 L 124.460938 338.238281 L 122.460938 336.359375 C 120.820312 334.699219 119.140625 333.121094 117.460938 331.480469 L 115.519531 329.480469 C 113.449219 327.429688 111.429688 325.328125 109.460938 323.179688 L 109.339844 323.039062 L 109 322.761719 C 106.882812 320.433594 104.796875 318.082031 102.738281 315.699219 C 102.199219 315.078125 101.699219 314.421875 101.140625 313.761719 L 96.601562 308.261719 C 94.554688 305.6875 92.554688 303.082031 90.601562 300.441406 L 89.800781 299.320312 C 43.039062 235.800781 26.121094 148.140625 63.539062 76.21875 L 30.5 118 C -12 178.78125 -6.738281 257.820312 25.761719 322.359375 C 26.5 323.941406 27.320312 325.421875 28.121094 326.921875 Z M 28.121094 326.921875 "/>
<path style=" stroke:none;fill-rule:nonzero;fill:rgb(0%,0%,0%);fill-opacity:1;" d="M 171.261719 239.359375 L 171.039062 239.039062 L 170.859375 238.800781 Z M 171.261719 239.359375 "/>
<path style=" stroke:none;fill-rule:nonzero;fill:rgb(7.058824%,40%,66.27451%);fill-opacity:1;" d="M 193.621094 265.601562 L 195.421875 267.398438 C 197.699219 269.601562 200.039062 271.738281 202.421875 273.878906 L 202.71875 274.140625 C 205.121094 276.261719 207.820312 278.480469 210.601562 280.640625 L 211.019531 280.960938 C 211.699219 281.421875 212.28125 281.960938 212.941406 282.421875 C 215.738281 284.578125 218.558594 286.640625 221.5 288.699219 L 221.800781 288.878906 C 223.039062 289.78125 224.359375 290.601562 225.761719 291.480469 C 226.320312 291.839844 226.960938 292.320312 227.558594 292.679688 C 229.679688 294.039062 231.761719 295.300781 233.898438 296.601562 C 234.238281 296.738281 234.539062 296.921875 234.859375 297.058594 C 236.660156 298.160156 238.621094 299.21875 240.5 300.179688 C 241.160156 300.578125 241.800781 300.878906 242.480469 301.261719 C 243.820312 301.921875 245.140625 302.621094 246.421875 303.300781 L 247.058594 303.578125 C 249.761719 304.898438 252.519531 306.140625 255.21875 307.359375 C 255.898438 307.621094 256.480469 307.839844 257.058594 308.121094 C 259.28125 309.078125 261.539062 310 263.761719 310.839844 C 264.761719 311.179688 265.699219 311.578125 266.640625 311.878906 C 268.679688 312.640625 270.820312 313.339844 272.839844 314.039062 L 275.640625 314.941406 C 278.558594 315.839844 281.519531 317.019531 284.621094 317.5 C 443.28125 343.621094 480 222.078125 480 222.078125 C 446.941406 269.421875 382.960938 291.980469 314.78125 274.359375 C 311.375 273.5 308 272.535156 304.660156 271.460938 L 305.800781 271.78125 C 304.839844 271.519531 304 271.21875 303.078125 270.941406 C 301 270.21875 298.859375 269.519531 296.839844 268.78125 L 293.960938 267.699219 C 291.71875 266.800781 289.441406 265.960938 287.261719 265 C 286.578125 264.699219 285.960938 264.5 285.441406 264.199219 C 282.640625 262.941406 279.820312 261.699219 277.078125 260.378906 L 272.960938 258.238281 L 270.578125 257.039062 C 268.738281 256.078125 267.039062 255.078125 265.28125 254.058594 C 264.832031 253.847656 264.398438 253.609375 263.980469 253.339844 L 264.039062 253.359375 C 261.921875 252.039062 259.71875 250.761719 257.679688 249.421875 C 257 249.039062 256.378906 248.578125 255.738281 248.179688 L 251.578125 245.480469 C 248.699219 243.480469 245.878906 241.339844 243.019531 239.261719 C 242.378906 238.679688 241.761719 238.199219 241.140625 237.679688 C 211.160156 214.21875 187.519531 182.160156 176.300781 145.859375 C 164.480469 108.121094 167.078125 65.800781 187.5 31.460938 L 162.398438 66.820312 C 131.578125 110.839844 133.320312 169.679688 157.320312 216.238281 C 161.699219 224.839844 166.140625 232.101562 171.039062 239.019531 C 175.601562 245.539062 180.640625 253.179688 186.71875 258.421875 C 188.878906 260.878906 191.199219 263.21875 193.621094 265.601562 Z M 193.621094 265.601562 "/>
<path style=" stroke:none;fill-rule:nonzero;fill:rgb(0%,0%,0%);fill-opacity:1;" d="M 48.71875 359.839844 L 48.640625 359.71875 L 48.5 359.539062 Z M 131.878906 344.960938 L 132.078125 345.101562 L 132.121094 345.160156 Z M 131.878906 344.960938 "/>
<path style=" stroke:none;fill-rule:nonzero;fill:rgb(7.058824%,40%,66.27451%);fill-opacity:1;" d="M 273.320312 28.539062 C 255.140625 55.078125 253.398438 88.039062 265.921875 117.300781 C 279.21875 148.378906 306.398438 172.78125 338.078125 184.339844 C 339.378906 184.839844 340.640625 185.261719 341.980469 185.738281 L 343.738281 186.28125 C 345.578125 186.859375 347.441406 187.539062 349.339844 187.960938 C 436.960938 204.78125 460.679688 143.199219 467.058594 134.140625 C 446.199219 163.941406 411.21875 171.101562 368.300781 160.71875 C 364.566406 159.808594 360.894531 158.675781 357.300781 157.320312 L 357.960938 157.539062 C 353.488281 155.992188 349.105469 154.1875 344.839844 152.140625 L 345.601562 152.480469 C 337.398438 148.480469 330.359375 144.160156 323.820312 139.199219 C 285.460938 110.199219 261.738281 54.980469 286.78125 10 Z M 273.320312 28.539062 "/>
</g>
</svg>
