<?xml version="1.0" encoding="UTF-8"?>
<svg xmlns="http://www.w3.org/2000/svg" xmlns:xlink="http://www.w3.org/1999/xlink" width="480px" height="480px" viewBox="0 0 480 480" version="1.1">
<g id="surface1">
<path style=" stroke:none;fill-rule:nonzero;fill:rgb(100%,100%,100%);fill-opacity:1;" d="M 229.28125 396.339844 C 214.921875 379.679688 231.578125 -310.539062 283.300781 394.039062 C 283.300781 394.039062 265.480469 402.941406 262.320312 418.179688 C 258.878906 433.121094 250.839844 400.640625 229.28125 396.339844 Z M 229.28125 396.339844 "/>
<path style=" stroke:none;fill-rule:nonzero;fill:rgb(65.098039%,63.921569%,52.156863%);fill-opacity:1;" d="M 229.28125 396.339844 C 214.921875 379.679688 231.578125 -310.539062 283.300781 394.039062 C 283.300781 394.039062 265.480469 402.941406 262.320312 418.179688 C 258.878906 433.121094 250.839844 400.640625 229.28125 396.339844 Z M 229.28125 396.339844 "/>
<path style=" stroke:none;fill-rule:nonzero;fill:rgb(100%,100%,100%);fill-opacity:1;" d="M 267.5 406.679688 C 267.5 406.679688 370.660156 338.859375 346.519531 197.78125 C 323.238281 95.199219 268.359375 61.578125 262.320312 48.640625 C 255.71875 39.441406 249.378906 23.359375 249.378906 23.359375 L 253.699219 308.699219 C 253.71875 308.980469 244.800781 396.039062 267.5 406.679688 Z M 267.5 406.679688 "/>
<path style=" stroke:none;fill-rule:nonzero;fill:rgb(28.627451%,61.568627%,29.019608%);fill-opacity:1;" d="M 267.5 406.679688 C 267.5 406.679688 370.660156 338.859375 346.519531 197.78125 C 323.238281 95.199219 268.359375 61.578125 262.320312 48.640625 C 255.71875 39.441406 249.378906 23.359375 249.378906 23.359375 L 253.699219 308.699219 C 253.71875 308.980469 244.800781 396.039062 267.5 406.679688 Z M 267.5 406.679688 "/>
<path style=" stroke:none;fill-rule:nonzero;fill:rgb(100%,100%,100%);fill-opacity:1;" d="M 243.378906 410.421875 C 243.378906 410.421875 146.539062 344.320312 152.28125 227.960938 C 157.738281 111.578125 226.121094 54.398438 239.339844 44.058594 C 247.960938 34.859375 248.238281 31.421875 248.820312 22.21875 C 254.859375 35.160156 253.699219 215.621094 254.558594 236.878906 C 257.160156 318.738281 249.980469 394.898438 243.378906 410.421875 Z M 243.378906 410.421875 "/>
<path style=" stroke:none;fill-rule:nonzero;fill:rgb(34.509804%,66.666667%,31.372549%);fill-opacity:1;" d="M 243.378906 410.421875 C 243.378906 410.421875 146.539062 344.320312 152.28125 227.960938 C 157.738281 111.578125 226.121094 54.398438 239.339844 44.058594 C 247.960938 34.859375 248.238281 31.421875 248.820312 22.21875 C 254.859375 35.160156 253.699219 215.621094 254.558594 236.878906 C 257.160156 318.738281 249.980469 394.898438 243.378906 410.421875 Z M 243.378906 410.421875 "/>
<path style=" stroke:none;fill-rule:nonzero;fill:rgb(0%,0%,0%);fill-opacity:1;" d="M 259.71875 480 C 258.019531 480 256.320312 479.699219 254.699219 479.140625 L 243.339844 475.101562 C 237.238281 472.941406 233.21875 467.101562 233.359375 460.640625 C 233.519531 452.960938 232.921875 431.621094 228.621094 417.859375 C 220.058594 410.78125 202.179688 394.640625 184.699219 370.078125 C 178.300781 361.101562 172.441406 351.640625 167.320312 342.039062 C 151.261719 311.859375 142.199219 279.738281 140.359375 246.519531 C 139.941406 238.878906 139.898438 231.21875 140.261719 223.339844 C 143.699219 146.480469 173.699219 76.558594 222.558594 31.519531 C 229.460938 25.179688 232.859375 19.519531 233.921875 12.679688 C 235.039062 5.679688 240.859375 0.421875 247.898438 0.0195312 C 255.261719 -0.441406 261.339844 4.21875 263.21875 11.039062 C 265.261719 18.421875 268.941406 26.441406 273.378906 33.019531 C 273.898438 33.800781 274.359375 34.621094 274.71875 35.480469 C 275.359375 36.558594 279.199219 40.761719 282.261719 44.121094 C 300.359375 64.039062 338.058594 105.460938 356.140625 190.078125 C 374.71875 305.21875 318.839844 376.121094 293 402.019531 C 292.660156 402.441406 292.300781 402.898438 292.101562 403.121094 C 285.660156 409.421875 280.460938 413.660156 277.558594 415.941406 C 276.378906 417.640625 275.640625 419.21875 275.339844 420.71875 C 273.261719 430.5 273.839844 452.421875 274.679688 463.941406 C 275.058594 469 272.839844 473.898438 268.800781 476.960938 C 266.179688 478.941406 262.960938 480 259.71875 480 Z M 247.800781 48.699219 C 246.238281 50.359375 244.621094 52 242.878906 53.601562 C 199.800781 93.300781 173.300781 155.679688 170.21875 224.738281 C 169.878906 231.640625 169.941406 238.28125 170.320312 244.898438 C 171.898438 273.71875 179.820312 301.679688 193.800781 327.960938 C 198.320312 336.441406 203.460938 344.761719 209.121094 352.679688 C 227.679688 378.738281 246.839844 394.121094 250.480469 396.941406 C 251.300781 397.578125 252.058594 398.300781 252.71875 399.101562 C 253.441406 398.019531 254.21875 396.980469 255.058594 395.921875 C 255.859375 394.898438 256.800781 394 257.820312 393.238281 C 259.441406 392.019531 264.058594 388.480469 269.699219 383.078125 C 270.160156 382.5 270.71875 381.839844 271.121094 381.441406 C 298.660156 354.160156 342.5 293.71875 326.679688 195.558594 C 310.441406 119.640625 277.679688 83.621094 260.078125 64.300781 C 254.28125 57.941406 250.261719 53.519531 247.878906 48.820312 C 247.839844 48.761719 247.820312 48.738281 247.800781 48.699219 Z M 247.800781 48.699219 "/>
</g>
</svg>
