<?xml version="1.0" encoding="UTF-8"?>
<svg xmlns="http://www.w3.org/2000/svg" xmlns:xlink="http://www.w3.org/1999/xlink" width="480px" height="480px" viewBox="0 0 480 480" version="1.1">
<g id="surface1">
<path style=" stroke:none;fill-rule:nonzero;fill:rgb(0%,38.039216%,54.117647%);fill-opacity:1;" d="M 7.503906 339.21875 L 22.910156 339.21875 L 22.910156 278.382812 L 46.757812 331.417969 C 49.570312 337.835938 53.421875 340.105469 60.980469 340.105469 C 68.535156 340.105469 72.238281 337.835938 75.050781 331.417969 L 98.902344 278.382812 L 98.902344 339.21875 L 114.308594 339.21875 L 114.308594 278.484375 C 114.308594 272.558594 111.9375 269.6875 107.046875 268.210938 C 95.34375 264.558594 87.492188 267.71875 83.9375 275.621094 L 60.53125 327.964844 L 37.871094 275.617188 C 34.460938 267.71875 26.464844 264.558594 14.761719 268.207031 C 9.871094 269.6875 7.5 272.554688 7.5 278.480469 L 7.5 339.21875 Z M 127.121094 289.695312 L 142.523438 289.695312 L 142.523438 323.210938 C 142.378906 325.03125 143.109375 329.304688 151.546875 329.441406 C 155.851562 329.507812 184.777344 329.441406 185.046875 329.441406 L 185.046875 289.53125 L 200.484375 289.53125 C 200.558594 289.53125 200.472656 343.957031 200.472656 344.183594 C 200.554688 357.609375 183.816406 360.519531 176.101562 360.746094 L 127.453125 360.746094 L 127.453125 350.382812 C 127.539062 350.382812 176.066406 350.390625 176.1875 350.378906 C 186.105469 349.332031 184.929688 344.402344 184.925781 342.746094 L 184.925781 338.703125 L 152.1875 338.703125 C 136.953125 338.566406 127.25 331.917969 127.125 324.265625 C 127.117188 323.566406 127.457031 290.03125 127.121094 289.695312 Z M 127.121094 289.695312 "/>
<path style=" stroke:none;fill-rule:nonzero;fill:rgb(89.411765%,55.686275%,0%);fill-opacity:1;" d="M 212.363281 339.21875 L 256.65625 339.21875 C 261.84375 339.21875 266.882812 338.132812 270.882812 336.257812 C 277.546875 333.199219 280.804688 329.050781 280.804688 323.613281 L 280.804688 312.355469 C 280.804688 307.914062 277.101562 303.761719 269.84375 301 C 265.992188 299.515625 261.246094 298.734375 256.652344 298.734375 L 237.984375 298.734375 C 231.765625 298.734375 228.800781 296.859375 228.0625 292.710938 C 227.917969 292.214844 227.917969 291.820312 227.917969 291.328125 L 227.917969 284.3125 C 227.917969 283.921875 227.917969 283.523438 228.0625 283.03125 C 228.800781 279.871094 230.433594 278.980469 235.917969 278.484375 L 237.398438 278.390625 L 281.394531 278.390625 L 281.394531 268.121094 L 238.140625 268.121094 C 231.917969 268.121094 228.660156 268.515625 225.699219 269.402344 C 216.515625 272.269531 212.507812 276.808594 212.507812 284.710938 L 212.507812 293.695312 C 212.507812 300.609375 220.363281 306.535156 233.546875 307.921875 C 235.03125 308.015625 236.507812 308.117188 237.988281 308.117188 L 253.992188 308.117188 C 254.582031 308.117188 255.175781 308.117188 255.621094 308.210938 C 260.511719 308.605469 262.582031 309.5 264.066406 311.273438 C 264.957031 312.160156 265.25 313.054688 265.25 314.035156 L 265.25 323.023438 C 265.25 324.109375 264.511719 325.492188 263.027344 326.675781 C 261.699219 327.863281 259.472656 328.652344 256.511719 328.851562 L 254.878906 328.949219 L 212.363281 328.949219 Z M 376.917969 321.34375 C 376.917969 331.910156 384.769531 337.832031 400.617188 339.023438 C 402.097656 339.121094 403.578125 339.21875 405.058594 339.21875 L 445.207031 339.21875 L 445.207031 328.949219 L 404.765625 328.949219 C 395.730469 328.949219 392.324219 326.675781 392.324219 321.242188 L 392.324219 268.113281 L 376.921875 268.113281 L 376.921875 321.34375 Z M 290.636719 321.878906 L 290.636719 285.257812 C 290.636719 275.957031 297.167969 270.316406 310.082031 268.535156 C 311.417969 268.335938 312.90625 268.238281 314.238281 268.238281 L 343.484375 268.238281 C 344.96875 268.238281 346.304688 268.335938 347.785156 268.535156 C 360.703125 270.316406 367.238281 275.953125 367.238281 285.257812 L 367.238281 321.878906 C 367.238281 329.429688 364.460938 333.464844 358.070312 336.097656 L 373.25 349.796875 L 355.359375 349.796875 L 343.078125 338.710938 L 330.71875 339.496094 L 314.238281 339.496094 C 311.417969 339.496094 308.453125 339.101562 305.1875 338.207031 C 295.386719 335.539062 290.636719 330.390625 290.636719 321.878906 Z M 307.265625 320.988281 C 307.265625 321.484375 307.410156 321.984375 307.558594 322.574219 C 308.449219 326.832031 312.460938 329.203125 318.542969 329.203125 L 332.539062 329.203125 L 319.683594 317.597656 L 337.574219 317.597656 L 348.785156 327.722656 C 350.855469 326.617188 352.210938 324.9375 352.6875 322.773438 C 352.832031 322.277344 352.832031 321.785156 352.832031 321.289062 L 352.832031 286.160156 C 352.832031 285.765625 352.832031 285.265625 352.6875 284.769531 C 351.796875 280.8125 347.785156 278.539062 341.851562 278.539062 L 318.539062 278.539062 C 311.714844 278.539062 307.261719 281.507812 307.261719 286.160156 L 307.261719 320.988281 Z M 307.265625 320.988281 "/>
<path style=" stroke:none;fill-rule:nonzero;fill:rgb(0%,38.039216%,54.117647%);fill-opacity:1;" d="M 458.761719 251.070312 C 449.292969 250.8125 442.058594 251.691406 435.871094 254.296875 C 434.109375 255.042969 431.308594 255.058594 431.023438 257.261719 C 431.988281 258.277344 432.140625 259.789062 432.90625 261.035156 C 434.386719 263.421875 436.878906 266.625 439.101562 268.300781 C 441.527344 270.136719 444.035156 272.101562 446.644531 273.691406 C 451.273438 276.515625 456.449219 278.128906 460.917969 280.957031 C 463.546875 282.628906 466.15625 284.730469 468.722656 286.617188 C 469.996094 287.542969 470.84375 288.992188 472.496094 289.574219 L 472.496094 289.308594 C 471.628906 288.207031 471.40625 286.691406 470.609375 285.535156 L 467.109375 282.035156 C 463.683594 277.488281 459.339844 273.503906 454.71875 270.1875 C 451.035156 267.542969 442.792969 263.96875 441.253906 259.683594 L 440.984375 259.417969 C 443.59375 259.121094 446.65625 258.175781 449.0625 257.53125 C 453.113281 256.445312 456.730469 256.726562 460.914062 255.644531 L 466.566406 254.023438 L 466.566406 252.953125 C 464.457031 250.785156 462.945312 247.914062 460.640625 245.953125 C 454.617188 240.816406 448.03125 235.6875 441.253906 231.40625 C 437.496094 229.035156 432.851562 227.492188 428.863281 225.484375 C 427.53125 224.804688 425.175781 224.457031 424.285156 223.328125 C 422.191406 220.660156 421.054688 217.28125 419.4375 214.171875 C 416.0625 207.667969 412.738281 200.558594 409.742188 193.707031 C 407.703125 189.039062 406.367188 184.433594 403.824219 180.242188 C 391.59375 160.140625 378.429688 148.003906 358.042969 136.078125 C 353.703125 133.542969 348.480469 132.542969 342.964844 131.234375 L 334.078125 130.695312 C 332.273438 129.941406 330.390625 127.730469 328.691406 126.65625 C 321.933594 122.390625 304.609375 113.109375 299.605469 125.3125 C 296.449219 133.015625 304.332031 140.53125 307.148438 144.433594 C 309.125 147.171875 311.660156 150.238281 313.074219 153.320312 C 314.003906 155.34375 314.160156 157.371094 314.957031 159.515625 C 316.914062 164.785156 318.617188 170.527344 321.148438 175.398438 C 322.429688 177.867188 323.84375 180.464844 325.457031 182.671875 C 326.449219 184.019531 328.152344 184.621094 328.417969 186.707031 C 326.757812 189.035156 326.660156 192.648438 325.726562 195.59375 C 321.515625 208.863281 323.105469 225.359375 329.226562 235.179688 C 331.105469 238.199219 335.53125 244.664062 341.613281 242.183594 C 346.933594 240.015625 345.75 233.296875 347.273438 227.371094 C 347.617188 226.03125 347.402344 225.042969 348.078125 224.140625 L 348.078125 224.410156 L 352.925781 234.105469 C 356.515625 239.882812 362.878906 245.917969 368.277344 249.992188 C 371.074219 252.105469 373.277344 255.761719 376.894531 256.996094 L 376.894531 256.722656 L 376.628906 256.722656 C 375.921875 255.628906 374.832031 255.179688 373.929688 254.296875 C 371.824219 252.234375 369.480469 249.667969 367.738281 247.296875 C 362.832031 240.636719 358.496094 233.34375 354.542969 225.753906 C 352.65625 222.132812 351.019531 218.132812 349.429688 214.445312 C 348.8125 213.023438 348.820312 210.871094 347.546875 210.140625 C 345.796875 212.839844 343.238281 215.023438 341.886719 218.214844 C 339.734375 223.316406 339.457031 229.539062 338.660156 235.988281 L 338.117188 236.253906 C 334.363281 235.351562 333.046875 231.488281 331.652344 228.175781 C 328.128906 219.800781 327.472656 206.3125 330.578125 196.671875 C 331.378906 194.175781 335.007812 186.320312 333.535156 184.011719 C 332.835938 181.714844 330.519531 180.386719 329.230469 178.625 C 327.628906 176.453125 326.027344 173.59375 324.921875 171.082031 C 322.035156 164.554688 320.6875 157.222656 317.65625 150.617188 C 316.199219 147.460938 313.746094 144.269531 311.730469 141.464844 C 309.5 138.351562 306.996094 136.066406 305.265625 132.308594 C 304.648438 130.972656 303.8125 128.832031 304.726562 127.457031 C 305.015625 126.53125 305.429688 126.144531 306.34375 125.84375 C 307.90625 124.640625 312.253906 126.242188 313.882812 126.917969 C 318.203125 128.714844 321.804688 130.421875 325.464844 132.84375 C 327.222656 134.011719 328.996094 136.261719 331.121094 136.882812 L 333.542969 136.882812 C 337.335938 137.753906 341.582031 137.148438 345.125 138.226562 C 351.386719 140.128906 356.996094 143.089844 362.089844 146.304688 C 377.609375 156.109375 390.296875 170.058594 398.980469 186.703125 C 400.375 189.382812 400.984375 191.9375 402.210938 194.777344 C 404.691406 200.507812 407.820312 206.40625 410.289062 212.015625 C 412.75 217.605469 415.15625 223.25 418.640625 227.902344 C 420.46875 230.347656 427.542969 231.660156 430.753906 233.015625 C 433.007812 233.96875 436.699219 234.964844 438.832031 236.246094 C 442.910156 238.707031 446.859375 241.636719 450.683594 244.328125 C 452.589844 245.683594 458.46875 248.636719 458.761719 251.070312 Z M 338.390625 148.472656 C 336.417969 148.4375 335.015625 148.691406 333.539062 149.015625 L 333.539062 149.28125 L 333.808594 149.28125 C 334.75 151.21875 336.414062 152.464844 337.578125 154.128906 L 340.273438 159.785156 L 340.542969 159.515625 C 342.210938 158.34375 342.972656 156.464844 342.964844 153.59375 C 342.292969 152.886719 342.195312 152.007812 341.617188 151.171875 C 340.851562 150.046875 339.359375 149.414062 338.390625 148.472656 Z M 338.390625 148.472656 "/>
</g>
</svg>
