<?xml version="1.0" encoding="UTF-8"?>
<svg xmlns="http://www.w3.org/2000/svg" xmlns:xlink="http://www.w3.org/1999/xlink" width="480px" height="480px" viewBox="0 0 480 528" version="1.1">
<g id="surface1">
<path style=" stroke:none;fill-rule:nonzero;fill:rgb(54.901961%,78.431373%,29.411765%);fill-opacity:1;" d="M 218.398438 6.703125 C 231.449219 -0.757812 248.445312 -0.792969 261.488281 6.703125 C 327.085938 43.726562 392.710938 80.691406 458.300781 117.738281 C 470.636719 124.679688 478.886719 138.390625 478.761719 152.589844 L 478.761719 375.339844 C 478.855469 390.125 469.789062 404.164062 456.773438 410.949219 C 391.386719 447.769531 326.035156 484.632812 260.660156 521.453125 C 247.339844 529.058594 230 528.472656 217.09375 520.242188 C 197.492188 508.894531 177.855469 497.597656 158.25 486.261719 C 154.246094 483.875 149.730469 481.976562 146.898438 478.097656 C 149.402344 474.730469 153.871094 474.3125 157.503906 472.839844 C 165.6875 470.242188 173.203125 466.070312 180.71875 462.023438 C 182.621094 460.722656 184.941406 461.222656 186.761719 462.382812 C 203.527344 471.984375 220.140625 481.863281 236.960938 491.371094 C 240.546875 493.4375 244.179688 490.691406 247.246094 488.984375 C 311.410156 452.765625 375.652344 416.679688 439.804688 380.449219 C 442.183594 379.304688 443.496094 376.785156 443.304688 374.183594 C 443.347656 300.707031 443.3125 227.210938 443.324219 153.730469 C 443.597656 150.78125 441.886719 148.070312 439.214844 146.859375 C 374.058594 110.210938 308.933594 73.503906 243.785156 36.84375 C 241.472656 35.253906 238.425781 35.25 236.109375 36.832031 C 170.960938 73.503906 105.847656 110.242188 40.699219 146.894531 C 38.039062 148.101562 36.253906 150.769531 36.570312 153.730469 C 36.582031 227.210938 36.570312 300.707031 36.570312 374.195312 C 36.339844 376.796875 37.75 379.261719 40.113281 380.382812 C 57.496094 390.226562 74.90625 400.003906 92.300781 409.816406 C 102.101562 415.085938 114.132812 418.21875 124.933594 414.179688 C 134.460938 410.765625 141.140625 401.054688 140.957031 390.949219 C 141.046875 317.898438 140.914062 244.835938 141.027344 171.796875 C 140.789062 168.554688 143.867188 165.875 147.023438 166.179688 C 155.378906 166.125 163.742188 166.066406 172.09375 166.203125 C 175.582031 166.125 177.980469 169.617188 177.550781 172.882812 C 177.515625 246.394531 177.640625 319.910156 177.492188 393.425781 C 177.515625 413.019531 169.457031 434.335938 151.3125 443.921875 C 128.960938 455.488281 101.332031 453.035156 79.25 441.945312 C 60.132812 432.414062 41.890625 421.167969 23.113281 410.957031 C 10.0625 404.210938 1.039062 390.113281 1.132812 375.339844 L 1.132812 152.589844 C 0.996094 138.097656 9.574219 124.136719 22.296875 117.296875 C 87.671875 80.445312 153.035156 43.570312 218.398438 6.703125 Z M 218.398438 6.703125 "/>
<path style=" stroke:none;fill-rule:nonzero;fill:rgb(54.901961%,78.431373%,29.411765%);fill-opacity:1;" d="M 275.429688 161.003906 C 303.941406 159.167969 334.464844 159.917969 360.125 173.945312 C 379.988281 184.695312 391.003906 207.261719 391.351562 229.304688 C 390.796875 232.277344 387.6875 233.917969 384.84375 233.714844 C 376.570312 233.703125 368.296875 233.824219 360.023438 233.65625 C 356.515625 233.792969 354.476562 230.558594 354.035156 227.460938 C 351.65625 216.914062 345.898438 206.46875 335.960938 201.382812 C 320.703125 193.75 303.011719 194.136719 286.375 194.292969 C 274.230469 194.9375 261.167969 195.988281 250.878906 203.121094 C 242.980469 208.527344 240.582031 219.433594 243.402344 228.21875 C 246.058594 234.527344 253.347656 236.5625 259.3125 238.4375 C 293.675781 247.414062 330.085938 246.523438 363.792969 258.335938 C 377.746094 263.148438 391.398438 272.511719 396.175781 287.105469 C 402.421875 306.664062 399.683594 330.042969 385.75 345.742188 C 374.453125 358.664062 357.996094 365.695312 341.585938 369.515625 C 319.753906 374.378906 297.09375 374.5 274.921875 372.34375 C 254.074219 369.96875 232.375 364.496094 216.28125 350.308594 C 202.515625 338.375 195.796875 319.773438 196.460938 301.824219 C 196.621094 298.792969 199.644531 296.679688 202.550781 296.929688 C 210.882812 296.863281 219.210938 296.839844 227.542969 296.941406 C 230.871094 296.703125 233.335938 299.574219 233.507812 302.707031 C 235.046875 312.753906 238.828125 323.300781 247.597656 329.261719 C 264.53125 340.171875 285.777344 339.421875 305.164062 339.730469 C 321.222656 339.015625 339.253906 338.800781 352.359375 328.199219 C 359.277344 322.152344 361.324219 312.03125 359.457031 303.328125 C 357.433594 295.980469 349.734375 292.554688 343.125 290.316406 C 309.203125 279.597656 272.386719 283.488281 238.792969 271.367188 C 225.15625 266.554688 211.96875 257.453125 206.726562 243.457031 C 199.417969 223.652344 202.765625 199.15625 218.160156 183.984375 C 233.167969 168.894531 254.832031 163.082031 275.429688 161 Z M 275.429688 161.003906 "/>
</g>
</svg>
