<?xml version="1.0" encoding="UTF-8"?>
<svg xmlns="http://www.w3.org/2000/svg" xmlns:xlink="http://www.w3.org/1999/xlink" width="480px" height="480px" viewBox="0 0 480 480" version="1.1">
<g id="surface1">
<path style=" stroke:none;fill-rule:nonzero;fill:rgb(91.764706%,10.588235%,13.333333%);fill-opacity:1;" d="M 207.703125 249.257812 L 238.949219 249.257812 L 222.421875 222.671875 L 192.09375 270.742188 L 178.289062 270.742188 L 215.183594 213 C 216.789062 210.667969 219.457031 209.257812 222.421875 209.257812 C 225.292969 209.257812 227.964844 210.617188 229.519531 212.902344 L 266.554688 270.742188 L 252.75 270.742188 L 246.238281 260 L 214.597656 260 Z M 351.082031 260 L 351.082031 209.84375 L 339.371094 209.84375 L 339.371094 264.910156 C 339.371094 266.417969 339.957031 267.878906 341.074219 268.996094 C 342.191406 270.113281 343.699219 270.742188 345.351562 270.742188 L 398.765625 270.742188 L 405.671875 260 Z M 157.292969 251.011719 C 168.667969 251.011719 177.902344 241.828125 177.902344 230.453125 C 177.902344 219.078125 168.671875 209.84375 157.292969 209.84375 L 106.050781 209.84375 L 106.050781 270.746094 L 117.761719 270.746094 L 117.761719 220.582031 L 156.515625 220.582031 C 161.960938 220.582031 166.335938 225.007812 166.335938 230.449219 C 166.335938 235.890625 161.957031 240.316406 156.515625 240.316406 L 123.496094 240.265625 L 158.460938 270.742188 L 175.476562 270.742188 L 151.949219 251.007812 L 157.292969 251.007812 Z M 33.972656 270.742188 C 17.160156 270.742188 3.515625 257.132812 3.515625 240.316406 C 3.515625 223.496094 17.15625 209.839844 33.972656 209.839844 L 69.367188 209.839844 C 86.1875 209.839844 99.820312 223.5 99.820312 240.316406 C 99.820312 257.128906 86.1875 270.742188 69.367188 270.742188 Z M 68.578125 260 C 79.472656 260 88.296875 251.203125 88.296875 240.316406 C 88.296875 229.429688 79.472656 220.578125 68.578125 220.578125 L 34.75 220.578125 C 23.867188 220.578125 15.042969 229.425781 15.042969 240.316406 C 15.042969 251.203125 23.867188 260 34.75 260 Z M 291.007812 270.742188 C 274.191406 270.742188 260.535156 257.132812 260.535156 240.316406 C 260.535156 223.496094 274.191406 209.839844 291.007812 209.839844 L 333.050781 209.839844 L 326.195312 220.578125 L 291.789062 220.578125 C 280.898438 220.578125 272.046875 229.425781 272.046875 240.316406 C 272.046875 251.203125 280.898438 260 291.789062 260 L 334.023438 260 L 327.125 270.742188 Z M 434.246094 260 C 425.257812 260 417.621094 253.972656 415.289062 245.660156 L 465.351562 245.660156 L 472.253906 234.917969 L 415.289062 234.917969 C 417.621094 226.65625 425.257812 220.578125 434.246094 220.578125 L 468.609375 220.578125 L 475.558594 209.839844 L 433.464844 209.839844 C 416.652344 209.839844 402.992188 223.5 402.992188 240.316406 C 402.992188 257.128906 416.652344 270.742188 433.464844 270.742188 L 469.582031 270.742188 L 476.484375 260 L 434.246094 260 "/>
</g>
</svg>
