<?xml version="1.0" encoding="UTF-8"?>
<svg xmlns="http://www.w3.org/2000/svg" xmlns:xlink="http://www.w3.org/1999/xlink" width="480px" height="480px" viewBox="0 0 480 480" version="1.1">
<g id="surface1">
<path style=" stroke:none;fill-rule:nonzero;fill:rgb(95.294118%,41.176471%,20%);fill-opacity:1;" d="M 268.640625 16.859375 C 145.398438 1.039062 32.660156 88.121094 16.859375 211.359375 C 1.058594 334.578125 88.121094 447.320312 211.359375 463.140625 C 334.621094 478.941406 447.378906 391.878906 463.140625 268.621094 C 478.960938 145.398438 391.898438 32.679688 268.640625 16.859375 Z M 268.640625 16.859375 "/>
<path style=" stroke:none;fill-rule:nonzero;fill:rgb(100%,100%,100%);fill-opacity:1;" d="M 299.421875 164.101562 C 276.921875 164.101562 244.578125 176.058594 235.441406 187.300781 C 226.300781 198.558594 192.539062 225.980469 189.738281 243.558594 C 186.921875 261.140625 198.179688 255.519531 186.921875 265.359375 C 175.660156 275.199219 159.5 304.039062 152.460938 314.578125 C 145.421875 325.121094 128.558594 337.078125 127.140625 341.300781 C 125.71875 345.519531 125.738281 361.699219 129.960938 361.699219 C 134.179688 361.699219 155.28125 361.699219 155.28125 361.699219 L 172.859375 342.71875 C 172.859375 342.71875 172.160156 340.621094 192.539062 332.179688 C 212.941406 323.738281 240 310.378906 240 310.378906 C 240 310.378906 307.980469 221.21875 311.441406 217.28125 C 314.898438 213.339844 309.921875 174.660156 309.921875 174.660156 Z M 299.421875 164.101562 "/>
<path style=" stroke:none;fill-rule:nonzero;fill:rgb(100%,100%,100%);fill-opacity:1;" d="M 370.441406 133.160156 C 370.441406 145.972656 360.054688 156.359375 347.238281 156.359375 C 334.425781 156.359375 324.039062 145.972656 324.039062 133.160156 C 324.039062 120.347656 334.425781 109.960938 347.238281 109.960938 C 360.054688 109.960938 370.441406 120.347656 370.441406 133.160156 Z M 370.441406 133.160156 "/>
<path style=" stroke:none;fill-rule:nonzero;fill:rgb(0%,0%,0%);fill-opacity:1;" d="M 240.460938 480.019531 C 230.160156 480.019531 219.820312 479.359375 209.441406 478.019531 C 78.21875 461.179688 -14.859375 340.699219 1.980469 209.460938 C 10.140625 145.878906 42.558594 89.300781 93.300781 50.101562 C 144.039062 10.921875 207 -6.160156 270.558594 1.980469 C 334.140625 10.140625 390.738281 42.578125 429.921875 93.300781 C 469.101562 144.019531 486.179688 206.980469 478.019531 270.539062 C 469.878906 334.121094 437.460938 390.699219 386.738281 429.898438 C 344.261719 462.699219 293.261719 480.019531 240.460938 480.019531 Z M 239.601562 30 C 193.398438 30 148.78125 45.140625 111.640625 73.839844 C 67.238281 108.121094 38.878906 157.640625 31.738281 213.28125 C 17 328.101562 98.441406 433.539062 213.28125 448.261719 C 268.878906 455.441406 324.019531 440.441406 368.398438 406.160156 C 412.800781 371.878906 441.160156 322.359375 448.28125 266.738281 C 455.421875 211.101562 440.480469 156.019531 406.199219 111.640625 C 371.921875 67.238281 322.398438 38.859375 266.738281 31.738281 C 257.660156 30.558594 248.601562 30 239.601562 30 Z M 239.601562 30 "/>
<path style=" stroke:none;fill-rule:nonzero;fill:rgb(0%,0%,0%);fill-opacity:1;" d="M 163.039062 380 C 162.980469 380 162.898438 380 162.839844 380 L 124.898438 379.660156 C 123.261719 379.640625 121.640625 379.359375 120.121094 378.839844 C 115.28125 377.859375 111.019531 375.441406 107.878906 371.800781 C 103.101562 366.339844 101.078125 360.878906 101.078125 355.238281 C 101.078125 354.199219 101.179688 353.039062 101.398438 352.019531 L 102.121094 348.601562 C 102.339844 347.601562 102.640625 346.640625 103.039062 345.699219 C 104.039062 343.480469 105.101562 341.859375 106.019531 340.660156 C 106.578125 339.761719 107.238281 338.898438 108 338.101562 L 125.101562 320.480469 C 125.339844 320.199219 125.578125 319.941406 125.839844 319.679688 L 167.460938 276.820312 C 165.398438 275.398438 163.578125 273.578125 162.199219 271.300781 C 156.421875 261.738281 158.839844 250.539062 169.421875 238.039062 C 174.460938 231.878906 232.359375 175.101562 246.101562 164.339844 C 260.878906 152.898438 272.921875 145.800781 287.378906 145.679688 C 300.679688 145.839844 313.019531 151.019531 321.640625 161.019531 C 330.820312 171.660156 335.21875 186.5 333.121094 199.78125 C 330 219.378906 318.359375 236.039062 307.359375 249.761719 C 294.699219 265.300781 278.679688 281.398438 263.261719 296.5 C 262.5 297.238281 261.738281 297.859375 261.039062 298.378906 C 260.621094 298.859375 260.238281 299.300781 259.980469 299.558594 C 236.820312 320.539062 214.398438 336.640625 188 351.179688 L 187.839844 355.261719 C 187.820312 355.800781 187.761719 356.359375 187.679688 356.898438 C 187.238281 362.28125 185.039062 367.21875 181.378906 370.980469 L 179.359375 373.058594 C 175.140625 377.460938 169.160156 380 163.039062 380 Z M 157.921875 352.121094 C 157.921875 352.121094 157.898438 352.140625 157.898438 352.160156 Z M 138.421875 349.78125 L 158.078125 349.960938 L 158.441406 341.378906 C 158.679688 336.039062 161.71875 331.21875 166.460938 328.738281 C 193.519531 314.539062 215.859375 298.980469 238.71875 278.378906 C 239.960938 276.761719 241.621094 275.160156 243.300781 274.121094 C 257.820312 259.898438 272.699219 244.898438 284.078125 230.898438 C 296.121094 215.921875 301.960938 205.179688 303.558594 195.101562 C 304.160156 191.261719 302.78125 185.039062 298.980469 180.621094 C 296.078125 177.261719 293.039062 175.378906 287.71875 175.699219 C 287.71875 175.699219 287.71875 175.699219 287.699219 175.699219 C 282.480469 175.738281 276 179.199219 264.578125 188.019531 C 254.660156 195.800781 217.039062 232.421875 200.460938 249.039062 C 206.980469 248.558594 213.140625 252.179688 215.621094 258.300781 C 218.28125 264.800781 216.078125 272.28125 210.300781 276.300781 C 210.078125 276.460938 208.539062 277.578125 206.960938 279.21875 L 147.238281 340.71875 L 147.179688 340.660156 Z M 287.558594 160.71875 L 287.761719 160.71875 Z M 287.558594 160.71875 "/>
<path style=" stroke:none;fill-rule:nonzero;fill:rgb(0%,0%,0%);fill-opacity:1;" d="M 346.300781 175.71875 C 322.800781 175.71875 303.679688 156.480469 303.679688 132.839844 C 303.679688 109.199219 322.800781 90 346.300781 90 C 369.800781 90 388.921875 109.21875 388.921875 132.859375 C 388.921875 156.5 369.800781 175.71875 346.300781 175.71875 Z M 346.300781 120 C 339.339844 120 333.679688 125.761719 333.679688 132.859375 C 333.679688 139.960938 339.339844 145.738281 346.300781 145.738281 C 353.261719 145.738281 358.921875 139.960938 358.921875 132.859375 C 358.921875 125.761719 353.261719 120 346.300781 120 Z M 346.300781 120 "/>
<path style=" stroke:none;fill-rule:nonzero;fill:rgb(0%,0%,0%);fill-opacity:1;" d="M 201.699219 279 C 194.601562 279 188.28125 273.921875 186.960938 266.679688 C 185.480469 258.539062 190.878906 250.71875 199.039062 249.238281 L 216.679688 246.058594 L 299.078125 160.140625 C 304.839844 154.160156 314.300781 153.960938 320.300781 159.71875 C 326.28125 165.441406 326.480469 174.960938 320.738281 180.941406 L 234.980469 270.359375 C 232.78125 272.621094 229.941406 274.160156 226.820312 274.738281 L 204.398438 278.800781 C 203.5 278.921875 202.601562 279 201.699219 279 Z M 201.699219 279 "/>
</g>
</svg>
