<?xml version="1.0" encoding="UTF-8"?>
<svg xmlns="http://www.w3.org/2000/svg" xmlns:xlink="http://www.w3.org/1999/xlink" width="480px" height="480px" viewBox="0 0 480 480" version="1.1">
<g id="surface1">
<path style=" stroke:none;fill-rule:nonzero;fill:rgb(20.784314%,40%,56.078431%);fill-opacity:1;" d="M 78.660156 350 L 103.820312 350 L 103.820312 300.640625 C 103.820312 264.941406 145.199219 225.820312 181.140625 225.820312 L 286.878906 225.820312 C 316.28125 225.820312 339.761719 208.71875 339.761719 178.578125 L 339.761719 75.558594 C 339.761719 46.238281 315.601562 24.28125 286.878906 19.339844 C 251.441406 13.359375 212.898438 13.679688 181.140625 19.441406 L 181.160156 19.421875 C 136.398438 27.519531 128.28125 44.421875 128.28125 75.640625 L 128.28125 130.558594 L 234.140625 130.558594 L 88.558594 130.558594 C 57.761719 130.558594 30.820312 149.480469 22.421875 185.378906 C 12.71875 226.539062 12.320312 252.199219 22.421875 295.199219 C 29.941406 327.140625 47.878906 350 78.660156 350 Z M 78.660156 350 "/>
<path style=" stroke:none;fill-rule:nonzero;fill:rgb(0%,0%,0%);fill-opacity:1;" d="M 364.621094 147.140625 L 364.640625 147.140625 L 364.640625 147.058594 Z M 364.621094 147.140625 "/>
<path style=" stroke:none;fill-rule:nonzero;fill:rgb(94.901961%,73.333333%,18.823529%);fill-opacity:1;" d="M 401.660156 344.160156 C 433.039062 344.160156 452.320312 331.71875 463.199219 296.878906 C 474.5 261 474 226.480469 463.199219 180.519531 C 455.441406 147.421875 440.71875 122.441406 409.339844 122.441406 L 375 122.441406 L 375 173.261719 C 375 212.679688 343.679688 252.140625 307.78125 252.140625 L 200.078125 252.140625 C 170.621094 252.140625 140 272.699219 140 304.078125 L 140 398.601562 C 140 429.660156 165.421875 447.878906 193.859375 456.78125 C 227.941406 467.378906 260.738281 469.300781 301.558594 456.78125 C 328.699219 448.421875 355.421875 431.578125 355.421875 398.601562 L 351.519531 351.078125 L 243.898438 351.078125 Z M 401.660156 344.160156 "/>
<path style=" stroke:none;fill-rule:nonzero;fill:rgb(100%,100%,100%);fill-opacity:1;" d="M 279.980469 378.199219 C 291.160156 378.199219 300.238281 387.960938 300.238281 399.960938 C 300.238281 412.078125 291.160156 421.820312 279.980469 421.820312 C 268.878906 421.820312 259.71875 411.960938 259.71875 399.960938 C 259.800781 387.839844 268.878906 378.199219 279.980469 378.199219 Z M 204.980469 58.199219 C 216.160156 58.199219 225.238281 67.960938 225.238281 79.960938 C 225.238281 92.078125 216.160156 101.820312 204.980469 101.820312 C 193.878906 101.820312 184.71875 91.960938 184.71875 79.960938 C 184.800781 67.839844 193.878906 58.199219 204.980469 58.199219 Z M 204.980469 58.199219 "/>
<path style=" stroke:none;fill-rule:nonzero;fill:rgb(0%,0%,0%);fill-opacity:1;" d="M 140 365 C 131.71875 365 125 358.28125 125 350 L 125 298.800781 C 125.601562 265.019531 146.980469 245 182.179688 245 L 291.980469 245 C 337.679688 245 364.960938 219.28125 364.960938 176.199219 L 364.960938 125 C 364.960938 116.71875 371.679688 110 379.960938 110 C 388.238281 110 394.960938 116.71875 394.960938 125 L 394.960938 175 C 394.960938 236.21875 354.539062 275 291.980469 275 L 182.179688 275 C 158.601562 275 155.199219 287.160156 155 299.078125 L 155 350 C 155 358.28125 148.28125 365 140 365 Z M 140 365 "/>
<path style=" stroke:none;fill-rule:nonzero;fill:rgb(0%,0%,0%);fill-opacity:1;" d="M 243.378906 480 C 224.058594 480 204.339844 478.480469 185.558594 475.421875 C 148.738281 469.179688 125 440.921875 125 403.398438 L 125 298.800781 C 125 290.519531 131.71875 283.800781 140 283.800781 C 148.28125 283.800781 155 290.519531 155 298.800781 L 155 403.378906 C 155 426.199219 168.261719 442.039062 190.480469 445.800781 C 225.21875 451.441406 263.378906 451.398438 295.058594 445.601562 C 313.800781 442.398438 325.539062 437.660156 331.101562 431.078125 C 335.621094 425.738281 337.539062 417.460938 337.539062 403.359375 L 337.539062 354.960938 L 254.960938 354.960938 C 246.679688 354.960938 239.960938 348.238281 239.960938 339.960938 C 239.960938 331.679688 246.679688 324.960938 254.960938 324.960938 L 352.539062 324.960938 C 360.820312 324.960938 367.539062 331.679688 367.539062 339.960938 L 367.539062 403.359375 C 367.539062 417.859375 366 436.28125 353.980469 450.460938 C 343.539062 462.78125 326.480469 470.640625 300.28125 475.121094 C 282.679688 478.378906 263.238281 480 243.378906 480 Z M 243.378906 480 "/>
<path style=" stroke:none;fill-rule:nonzero;fill:rgb(0%,0%,0%);fill-opacity:1;" d="M 393.761719 355 L 352.558594 355 C 344.28125 355 337.558594 348.28125 337.558594 340 C 337.558594 331.71875 344.28125 325 352.558594 325 L 393.761719 325 C 422.679688 325 436.421875 314.761719 442.78125 288.480469 C 452.441406 248.101562 452.441406 224.640625 442.761719 183.859375 C 434 147.460938 420.898438 140 403.960938 140 L 394.960938 140 L 394.960938 175 C 394.960938 183.28125 388.238281 190.601562 379.960938 190.601562 C 371.679688 190.601562 364.960938 184.460938 364.960938 176.179688 L 364.960938 125 C 364.960938 116.71875 371.679688 110 379.960938 110 L 403.960938 110 C 450.460938 110 465.019531 148.160156 471.941406 176.878906 C 482.640625 222 482.640625 250.800781 471.941406 295.5 C 462.398438 334.980469 436.101562 355 393.761719 355 Z M 279.980469 435 C 260.679688 435 244.980469 419.28125 244.980469 399.960938 C 244.980469 380.679688 260.679688 365 279.980469 365 C 299.28125 365 314.980469 380.679688 314.980469 399.960938 C 314.78125 419.359375 299.078125 435 279.980469 435 Z M 279.980469 395 C 277.21875 395 274.980469 397.21875 274.980469 399.960938 C 274.980469 405.398438 284.921875 405.480469 284.980469 399.820312 C 284.980469 397.21875 282.71875 395 279.980469 395 Z M 279.980469 395 "/>
<path style=" stroke:none;fill-rule:nonzero;fill:rgb(0%,0%,0%);fill-opacity:1;" d="M 100.039062 370 C 91.761719 370 85.039062 363.28125 85.039062 355 L 85.039062 305 C 85.039062 243.78125 125.460938 205 188.019531 205 L 297.820312 205 C 321.398438 205 324.800781 192.839844 325 180.941406 L 325 130 C 325 121.71875 331.71875 115 340 115 C 348.28125 115 355 121.71875 355 130 L 355 181.21875 C 354.398438 215 333.019531 235 297.820312 235 L 188.019531 235 C 142.320312 235 115.039062 260.71875 115.039062 303.800781 L 115.039062 355 C 115.039062 363.28125 108.320312 370 100.039062 370 Z M 100.039062 370 "/>
<path style=" stroke:none;fill-rule:nonzero;fill:rgb(0%,0%,0%);fill-opacity:1;" d="M 340 196.21875 C 331.71875 196.21875 325 189.5 325 181.21875 L 325 76.601562 C 325 53.78125 311.738281 37.941406 289.519531 34.179688 C 254.78125 28.539062 216.621094 28.578125 184.941406 34.378906 C 166.199219 37.578125 154.460938 42.320312 148.878906 48.878906 C 144.359375 54.21875 142.441406 62.5 142.441406 76.601562 L 142.441406 125 L 225.019531 125 C 233.300781 125 240.019531 131.71875 240.019531 140 C 240.019531 148.28125 233.300781 155 225.019531 155 L 127.441406 155 C 119.160156 155 112.441406 148.28125 112.441406 140 L 112.441406 76.601562 C 112.441406 62.101562 113.980469 43.679688 126 29.5 C 136.441406 17.179688 153.5 9.320312 179.699219 4.839844 C 214.5 -1.480469 256.359375 -1.601562 294.441406 4.601562 C 331.28125 10.839844 355.019531 39.101562 355.019531 76.621094 L 355.019531 181.21875 C 355 189.5 348.300781 196.21875 340 196.21875 Z M 340 196.21875 "/>
<path style=" stroke:none;fill-rule:nonzero;fill:rgb(0%,0%,0%);fill-opacity:1;" d="M 100.039062 370 L 76.039062 370 C 29.539062 370 14.980469 331.839844 8.058594 303.121094 C -2.640625 258 -2.640625 229.199219 8.058594 184.5 C 17.601562 145.019531 43.898438 125 86.238281 125 L 127.441406 125 C 135.71875 125 142.441406 131.71875 142.441406 140 C 142.441406 148.28125 135.71875 155 127.441406 155 L 86.238281 155 C 57.320312 155 43.578125 165.238281 37.21875 191.519531 C 27.558594 231.898438 27.558594 255.359375 37.238281 296.140625 C 46 332.539062 59.101562 340 76.039062 340 L 85.039062 340 L 85.039062 305 C 85.039062 296.71875 91.761719 289.398438 100.039062 289.398438 C 108.320312 289.398438 115.039062 295.539062 115.039062 303.820312 L 115.039062 355.019531 C 115.039062 363.28125 108.320312 370 100.039062 370 Z M 200.019531 115 C 180.71875 115 165.019531 99.320312 165.019531 80.039062 C 165.199219 60.640625 180.898438 45 200.019531 45 C 219.320312 45 235.019531 60.71875 235.019531 80.039062 C 235.019531 99.320312 219.320312 115 200.019531 115 Z M 200.019531 75 C 197.238281 75 195.039062 77.28125 195.019531 80.179688 C 195.019531 85.378906 205.019531 85.519531 205.019531 80.039062 C 205.019531 77.359375 202.699219 75 200.019531 75 Z M 200.019531 75 "/>
</g>
</svg>
