<?xml version="1.0" encoding="UTF-8"?>
<svg xmlns="http://www.w3.org/2000/svg" xmlns:xlink="http://www.w3.org/1999/xlink" width="480px" height="480px" viewBox="0 0 480 480" version="1.1">
<g id="surface1">
<path style=" stroke:none;fill-rule:nonzero;fill:rgb(38.039216%,85.490196%,98.431373%);fill-opacity:1;" d="M 274.875 178.125 C 274.875 197.386719 259.261719 213 240 213 C 220.738281 213 205.125 197.386719 205.125 178.125 C 205.125 158.863281 220.738281 143.25 240 143.25 C 259.261719 143.25 274.875 158.863281 274.875 178.125 Z M 274.875 178.125 "/>
<path style=" stroke:none;fill-rule:nonzero;fill:rgb(38.039216%,85.490196%,98.431373%);fill-opacity:1;" d="M 240 306.375 C 267.375 333 294.375 348.75 316.125 348.75 C 323.25 348.75 330 347.25 335.625 343.875 C 355.125 332.625 362.25 304.5 355.5 264.375 C 354.375 257.25 352.875 250.125 351 242.625 C 358.5 240.375 365.25 238.125 372 235.875 C 409.875 221.25 430.875 201 430.875 178.875 C 430.875 156.375 409.875 136.125 372 121.875 C 365.25 119.25 358.5 117 351 115.125 C 352.875 107.625 354.375 100.5 355.5 93.375 C 361.875 52.5 354.75 24 335.25 12.75 C 329.625 9.375 322.875 7.875 315.75 7.875 C 294.375 7.875 267 23.625 239.625 50.25 C 212.625 23.625 185.625 7.875 163.875 7.875 C 156.75 7.875 150 9.375 144.375 12.75 C 124.875 24 117.75 52.125 124.5 92.25 C 125.625 99.375 127.125 106.5 129 114 C 121.5 116.25 114.75 118.5 108 120.75 C 70.125 135.375 49.125 155.625 49.125 177.75 C 49.125 200.25 70.125 220.5 108 234.75 C 114.75 237.375 121.5 239.625 129 241.5 C 127.125 249 125.625 256.125 124.5 263.25 C 118.125 303.375 125.25 331.875 144.375 342.75 C 150 346.125 156.75 347.625 163.875 347.625 C 185.625 348.375 212.625 332.625 240 306.375 Z M 219 255.75 C 225.75 256.125 232.875 256.125 240 256.125 C 247.125 256.125 254.25 256.125 261 255.75 C 254.25 264.75 247.125 273 240 280.875 C 232.875 273 225.75 264.75 219 255.75 Z M 172.5 217.125 C 176.25 223.5 179.625 229.5 183.75 235.5 C 172.125 234 161.25 232.125 150.75 229.875 C 154.125 219.75 157.875 209.25 162.375 198.75 C 165.375 204.75 168.75 211.125 172.5 217.125 Z M 150.75 126.75 C 161.25 124.5 172.125 122.625 183.75 121.125 C 180 127.125 176.25 133.125 172.5 139.5 C 168.75 145.875 165.375 151.875 162.375 158.25 C 157.5 147.375 153.75 136.875 150.75 126.75 Z M 171.375 178.125 C 176.25 168 181.5 157.875 187.5 147.75 C 193.125 138 199.5 128.25 205.875 118.5 C 217.125 117.75 228.375 117.375 240 117.375 C 252 117.375 263.25 117.75 274.125 118.5 C 280.875 128.25 286.875 138 292.5 147.75 C 298.5 157.875 303.75 168 308.625 178.125 C 303.75 188.25 298.5 198.375 292.5 208.5 C 286.875 218.25 280.5 228 274.125 237.75 C 262.875 238.5 251.625 238.875 240 238.875 C 228 238.875 216.75 238.5 205.875 237.75 C 199.125 228 193.125 218.25 187.5 208.5 C 181.5 198.375 176.25 188.25 171.375 178.125 Z M 318 157.875 L 307.875 139.125 C 304.125 132.75 300.75 126.75 296.625 120.75 C 308.25 122.25 319.125 124.125 329.625 126.375 C 326.25 136.875 322.5 147.375 318 157.875 Z M 318 198.375 C 322.5 208.875 326.25 219.375 329.625 229.5 C 319.125 231.75 308.25 233.625 296.625 235.125 C 300.375 229.125 304.125 223.125 307.875 216.75 C 311.25 211.125 314.625 204.75 318 198.375 Z M 326.625 328.5 C 323.625 330.375 319.875 331.125 315.75 331.125 C 297.375 331.125 274.5 316.125 252 293.625 C 262.875 282 273.375 268.875 283.875 254.25 C 301.5 252.75 318.375 250.125 334.125 246.375 C 336 253.125 337.125 259.875 338.25 266.625 C 343.5 298.5 339.375 321.375 326.625 328.5 Z M 346.125 130.875 C 388.125 142.875 413.25 161.25 413.25 178.125 C 413.25 192.75 396 207.375 365.625 219 C 359.625 221.25 352.875 223.5 346.125 225.375 C 341.25 210 335.25 194.25 327.75 178.125 C 335.25 162 341.625 146.25 346.125 130.875 Z M 316.125 25.125 C 320.25 25.125 323.625 25.875 327 27.75 C 339.375 34.875 343.875 57.375 338.625 89.625 C 337.5 96 336 102.75 334.5 109.875 C 318.75 106.5 301.875 103.875 284.25 102 C 274.125 87.375 263.25 74.25 252.375 62.625 C 274.875 40.5 297.75 25.125 316.125 25.125 Z M 261 100.5 C 254.25 100.125 247.125 100.125 240 100.125 C 232.875 100.125 225.75 100.125 219 100.5 C 225.75 91.5 232.875 83.25 240 75.375 C 247.125 83.25 254.25 91.875 261 100.5 Z M 153.375 27.75 C 156.375 25.875 160.125 25.125 164.25 25.125 C 182.625 25.125 205.5 40.125 228 62.625 C 217.125 74.25 206.625 87.375 196.125 102 C 178.5 103.5 161.625 106.125 145.875 109.875 C 144 103.125 142.875 96.375 141.75 89.625 C 136.5 57.75 140.625 35.25 153.375 27.75 Z M 133.875 225.375 C 91.875 213.375 66.75 195 66.75 178.125 C 66.75 163.5 84 148.875 114.375 137.25 C 120.375 135 127.125 132.75 133.875 130.875 C 138.75 146.25 144.75 162 152.25 178.125 C 144.75 194.25 138.375 210.375 133.875 225.375 Z M 141.75 266.625 C 142.875 260.25 144.375 253.5 145.875 246.375 C 161.625 249.75 178.5 252.375 196.125 254.25 C 206.25 268.875 217.125 282 228 293.625 C 205.5 315.75 182.625 331.125 164.25 331.125 C 160.125 331.125 156.75 330.375 153.375 328.5 C 140.625 321.375 136.5 298.5 141.75 266.625 Z M 126 421.125 C 134.25 411 134.625 399.75 130.125 388.5 C 125.625 377.25 116.25 372 104.625 371.625 C 90.75 371.25 76.5 371.625 62.625 371.625 L 60 371.625 L 60 468.75 L 71.25 468.75 L 71.25 432 L 88.875 432 C 91.125 432 93 432.75 94.125 434.625 L 116.625 469.5 C 117 470.25 118.125 471.375 118.875 471.375 L 133.5 471.375 C 124.5 457.5 115.875 444.375 106.875 430.875 C 114.75 429.75 121.5 427.125 126 421.125 Z M 71.25 420.375 L 71.25 383.25 L 75.375 383.25 C 84 383.25 93 382.875 101.625 383.625 C 111.75 384 118.875 391.875 118.875 402 C 118.875 412.125 110.625 420 100.5 420.375 C 91.5 420.75 82.5 420.375 71.25 420.375 Z M 216.375 425.25 C 210.375 399 186.375 392.25 168 400.5 C 153.75 406.875 147.375 419.25 147 434.625 C 146.625 446.25 150 456.75 159 464.625 C 169.125 473.625 181.5 474.75 194.25 472.5 C 201.375 471 207.75 467.625 212.625 462.375 C 210.75 459.75 208.875 457.125 207 454.875 C 196.5 463.875 184.875 466.875 172.125 460.875 C 163.875 456.75 159.75 446.625 159 439.125 L 217.125 439.125 L 217.125 434.25 C 217.5 430.875 217.125 427.875 216.375 425.25 Z M 159.75 431.25 C 158.625 420 169.875 408 182.25 408 C 196.5 407.625 205.5 416.25 205.875 431.25 Z M 274.875 398.625 C 269.25 397.5 263.25 397.125 257.625 397.5 C 248.625 398.25 240.75 402.375 234.375 409.125 C 236.25 411.75 237.75 414.375 240 417.375 C 240.75 416.625 241.5 415.875 242.25 415.5 C 248.25 409.875 255.375 406.875 264 407.625 C 270.75 408 277.125 410.25 279 417 C 280.5 422.25 280.125 427.875 280.5 433.5 C 279.375 433.5 279 433.125 278.625 432.75 C 269.625 425.25 259.5 423.75 248.625 426.375 C 238.5 429 232.125 436.875 231.375 447 C 230.625 458.625 235.875 467.25 246 471.375 C 252.375 474 259.5 474 266.25 472.5 C 271.5 471.375 273.75 468.375 281.25 464.25 L 281.25 469.125 L 291.75 469.125 C 291.75 454.125 292.125 435.75 291.75 418.5 C 291.75 407.625 285.375 400.875 274.875 398.625 Z M 280.125 445.875 C 279.75 447 280.125 448.125 280.125 449.25 C 280.125 457.125 278.25 459.75 270.75 462.75 C 265.5 464.625 259.875 465.375 254.25 463.5 C 247.875 461.625 243.375 456 243.375 449.625 C 243 443.25 247.125 436.875 253.5 435 C 262.125 432 270 433.875 277.125 439.125 C 279.375 441 280.875 442.875 280.125 445.875 Z M 338.625 408.75 C 348.375 405.75 357.375 407.625 364.125 415.875 L 365.25 416.625 C 367.875 414.375 370.125 412.125 373.125 409.5 C 372 408.375 371.625 407.625 370.875 406.5 C 360 394.875 338.625 393.375 325.5 402.75 C 307.125 416.25 307.5 442.5 316.5 456.375 C 325.125 469.5 337.5 474 352.125 472.125 C 360.75 471 367.875 466.875 373.5 459.75 C 370.875 457.5 368.25 455.25 365.625 452.625 C 364.875 453.375 364.5 453.75 364.125 454.5 C 354 465.75 337.125 464.625 328.125 452.625 C 322.875 445.5 321.75 437.25 323.25 429 C 324 419.625 328.875 412.125 338.625 408.75 Z M 416.625 459.75 C 415.875 460.125 415.5 460.5 415.5 460.5 C 412.5 462.75 409.5 463.125 406.125 462 C 402.75 460.5 402.375 457.5 402 454.5 L 402 411.75 C 402 411 402 412.5 402.375 408.75 L 416.625 408.75 L 416.625 397.5 L 401.625 397.5 L 401.625 378.75 L 390.375 378.75 L 390.375 399 L 380.625 399 C 379.875 399 378.75 399.75 378.75 400.5 C 378.375 403.125 378.75 405 378.75 408.75 L 390.75 408.75 L 390.75 456.75 C 390.75 462.75 392.25 468 397.5 471 C 403.125 474.375 414 473.625 418.875 469.5 C 419.625 469.125 420 467.625 420 467.25 C 418.875 465 417.75 462.375 416.625 459.75 Z M 416.625 459.75 "/>
</g>
</svg>
