<?xml version="1.0" encoding="UTF-8"?>
<svg xmlns="http://www.w3.org/2000/svg" xmlns:xlink="http://www.w3.org/1999/xlink" width="480px" height="480px" viewBox="0 0 480 480" version="1.1">
<g id="surface1">
<path style=" stroke:none;fill-rule:nonzero;fill:rgb(78.039216%,39.215686%,58.431373%);fill-opacity:1;" d="M 465 240 C 465 364.265625 364.265625 465 240 465 C 115.734375 465 15 364.265625 15 240 C 15 115.734375 115.734375 15 240 15 C 364.265625 15 465 115.734375 465 240 Z M 465 240 "/>
<path style=" stroke:none;fill-rule:nonzero;fill:rgb(0%,0%,0%);fill-opacity:1;" d="M 154.5 400.019531 C 147.5 400.019531 141.101562 398.339844 135.800781 394.761719 C 128.558594 389.878906 113.800781 374.640625 133.199219 338.640625 C 141.980469 322.339844 155.699219 308.421875 172.460938 298.238281 C 166.800781 294.261719 160.140625 290.121094 152.421875 285.820312 C 123.28125 269.578125 108.28125 244.398438 110.160156 214.921875 C 113.121094 168.300781 158.179688 119.699219 222.300781 93.960938 C 279.898438 70.859375 338.039062 77.238281 360.621094 109.101562 C 368.71875 120.558594 383.238281 152.21875 342.640625 198.5 C 324.378906 219.300781 297.480469 231.519531 266.921875 232.941406 C 238.019531 234.300781 209.058594 225.460938 193.238281 210.480469 C 187.21875 204.78125 186.980469 195.28125 192.660156 189.261719 C 198.359375 183.199219 207.878906 183 213.878906 188.679688 C 221.941406 196.339844 241.539062 204.179688 265.539062 202.980469 C 278.480469 202.398438 302.78125 198.421875 320.121094 178.699219 C 338.78125 157.460938 344.621094 138.378906 336.160156 126.441406 C 323.761719 108.921875 281.921875 102.421875 233.5 121.839844 C 180.699219 143 142.300781 182.078125 140.101562 216.859375 C 138.960938 234.640625 148.019531 249.019531 167.039062 259.640625 C 179.320312 266.5 192.679688 274.761719 203.621094 284.761719 C 206.878906 283.839844 210.179688 283.039062 213.539062 282.378906 C 240.960938 276.941406 265.980469 281.300781 282.101562 294.460938 C 293.21875 303.519531 299.558594 315.019531 300.421875 327.738281 C 302.019531 350.71875 285.5 369.199219 283.621094 371.238281 C 277.941406 377.320312 268.480469 377.640625 262.398438 372.019531 C 256.339844 366.398438 256 356.921875 261.578125 350.859375 C 264.300781 347.859375 271.140625 338.261719 270.480469 329.699219 C 270.261719 326.941406 269.28125 322.699219 263.140625 317.679688 C 254.839844 310.921875 239.679688 308.480469 222.980469 311.140625 C 224.179688 314.121094 225.058594 317.21875 225.679688 320.421875 C 228.71875 336.699219 223.21875 353.441406 209.359375 370.160156 C 193.71875 389.019531 172.28125 400.019531 154.5 400.019531 Z M 194.359375 320.5 C 180.71875 327.398438 167.621094 338.019531 159.621094 352.859375 C 152.480469 366.160156 153.640625 371.160156 153.640625 371.199219 C 156.078125 371.261719 173.078125 366.921875 186.28125 351.019531 C 198.21875 336.621094 196.699219 328.578125 196.199219 325.921875 C 195.859375 324.160156 195.261719 322.339844 194.359375 320.5 Z M 194.359375 320.5 "/>
<path style=" stroke:none;fill-rule:nonzero;fill:rgb(0%,0%,0%);fill-opacity:1;" d="M 240 480 C 107.660156 480 0 372.339844 0 240 C 0 107.660156 107.660156 0 240 0 C 372.339844 0 480 107.660156 480 240 C 480 372.339844 372.339844 480 240 480 Z M 240 30 C 124.199219 30 30 124.199219 30 240 C 30 355.800781 124.199219 450 240 450 C 355.800781 450 450 355.800781 450 240 C 450 124.199219 355.800781 30 240 30 Z M 240 30 "/>
</g>
</svg>
