<?xml version="1.0" encoding="UTF-8"?>
<svg xmlns="http://www.w3.org/2000/svg" xmlns:xlink="http://www.w3.org/1999/xlink" width="480px" height="480px" viewBox="0 0 480 480" version="1.1">
<g id="surface1">
<path style=" stroke:none;fill-rule:evenodd;fill:rgb(79.607843%,40%,60%);fill-opacity:1;" d="M 4.570312 210.585938 C 4.570312 213.222656 5.347656 214.960938 5.78125 216.652344 C 8.617188 227.652344 14.710938 237.089844 21.941406 245.699219 C 32.238281 257.96875 44.851562 267.847656 57.769531 277.136719 C 68.972656 285.191406 80.40625 293.066406 91.65625 301.0625 C 93.589844 302.433594 95.414062 304.011719 97.511719 305.695312 C 95.707031 306.671875 94.207031 307.53125 92.648438 308.320312 C 77.800781 315.851562 63.515625 324.292969 50.351562 334.519531 C 42.417969 340.683594 34.742188 347.234375 29.324219 355.796875 C 20.605469 369.566406 17.519531 384.234375 24.019531 399.898438 C 25.917969 404.476562 28.8125 408.425781 32.894531 411.347656 C 34.21875 412.292969 35.703125 413.230469 37.253906 413.597656 C 41.21875 414.53125 45.261719 415.144531 49.277344 415.882812 L 60.652344 415.875 C 73.230469 414.753906 84.679688 410.445312 95.023438 403.304688 C 111.195312 392.144531 122.089844 377.183594 126.773438 357.980469 C 130.175781 344.019531 130.316406 330.046875 126.304688 316.15625 C 125.933594 314.863281 125.464844 313.601562 124.976562 312.351562 C 124.488281 311.105469 123.914062 309.890625 123.238281 308.332031 L 149.023438 293.503906 L 149.410156 293.835938 C 148.941406 295.367188 148.445312 296.898438 148.019531 298.449219 C 144.957031 309.636719 142.921875 321.023438 143.652344 332.636719 C 144.429688 345.011719 147.886719 356.59375 155.128906 366.933594 C 160.988281 375.296875 174.945312 375.609375 181.171875 367.214844 C 183.378906 364.234375 185.519531 361.117188 187.128906 357.792969 C 191.332031 349.109375 195.226562 340.273438 199.242188 331.5 L 199.941406 329.894531 C 199.652344 334.050781 199.316406 337.699219 199.164062 341.351562 C 198.921875 347.054688 199.257812 352.726562 201.207031 358.152344 C 202.875 362.792969 205.714844 366.261719 211.03125 366.875 C 214.667969 367.289062 217.566406 365.625 220.242188 363.515625 C 224.417969 360.21875 227.8125 356.144531 230.332031 351.515625 C 237.460938 338.425781 244.78125 325.414062 251.242188 311.992188 C 258.234375 297.476562 264.34375 282.535156 270.835938 267.773438 L 271.910156 265.15625 C 273.441406 271.179688 274.511719 277.082031 276.480469 282.671875 C 278.765625 289.15625 281.597656 295.484375 284.679688 301.640625 C 286.140625 304.546875 285.972656 306.429688 283.949219 308.867188 C 275.488281 319.070312 267.175781 329.390625 258.855469 339.703125 C 257.015625 341.980469 255.179688 344.296875 253.644531 346.785156 C 252.71875 348.296875 252.105469 350.136719 251.847656 351.898438 C 251.347656 355.265625 253.429688 358.515625 257.03125 359.292969 C 260.324219 360 263.832031 360.261719 267.1875 360.015625 C 278.800781 359.160156 289.347656 355.082031 298.667969 348.175781 C 310.746094 339.230469 314.625 327.019531 311.699219 312.546875 C 310.910156 308.621094 309.511719 304.804688 308.148438 301.019531 C 307.539062 299.3125 307.496094 298.117188 308.609375 296.527344 C 318.265625 282.738281 326.515625 268.109375 334.1875 253.144531 C 334.492188 252.554688 334.804688 251.964844 335.335938 251.335938 C 337.824219 264.273438 341.566406 276.742188 348.269531 288.054688 C 344.851562 291.351562 341.464844 294.339844 338.398438 297.632812 C 331.652344 304.886719 325.804688 312.761719 322.75 322.363281 C 321.4375 326.503906 320.429688 330.710938 321.015625 335.132812 C 321.921875 342 327.546875 346.460938 334.300781 344.898438 C 348.753906 341.554688 361.230469 334.742188 370.347656 322.679688 C 376.480469 314.558594 377.039062 305.496094 374.472656 296.007812 C 373.765625 293.425781 372.929688 290.886719 372.03125 287.929688 C 375.597656 286.824219 379.074219 285.496094 382.667969 284.671875 C 401.339844 280.414062 419.808594 281.15625 437.800781 287.898438 C 448.304688 291.835938 456.792969 298.425781 461.824219 308.789062 C 467.96875 321.460938 464.574219 333.484375 452.628906 341.492188 C 451.515625 342.238281 450.238281 342.828125 449.316406 343.761719 C 448.75 344.335938 448.410156 345.484375 448.546875 346.273438 C 448.628906 346.734375 449.847656 347.3125 450.546875 347.304688 C 454.472656 347.277344 457.65625 345.21875 460.714844 343.101562 C 468.371094 337.804688 473.957031 330.675781 475.164062 321.289062 L 475.398438 320.582031 L 475.109375 314.472656 C 474.992188 314.117188 475.195312 313.769531 475.171875 313.503906 C 473.542969 299.835938 466.242188 289.234375 455.621094 280.921875 C 443.320312 271.304688 428.796875 267.34375 413.4375 266.71875 C 400.921875 266.207031 388.617188 268.070312 376.820312 272.355469 C 373.453125 273.574219 370.121094 275.015625 366.738281 276.378906 C 366.285156 275.558594 365.796875 274.769531 365.394531 273.957031 C 361.921875 266.847656 357.714844 260.050781 356.785156 251.898438 C 356.125 246.109375 355.316406 240.328125 356.691406 234.601562 C 358.015625 229.089844 359.742188 223.675781 361.363281 218.242188 C 362.203125 215.445312 361.613281 213.878906 358.941406 212.617188 C 358.011719 212.179688 357 211.796875 355.996094 211.648438 C 349.433594 210.699219 342.960938 211.242188 336.605469 213.089844 C 334.355469 213.746094 332.71875 215.007812 332.21875 217.496094 C 331.933594 218.925781 331.355469 220.292969 330.949219 221.703125 C 329.289062 227.566406 328.109375 233.539062 325.425781 239.121094 C 318.699219 253.128906 311.015625 266.605469 303.15625 279.984375 C 302.304688 281.429688 301.410156 282.847656 300.335938 284.597656 C 297.578125 278.824219 294.632812 273.640625 293.742188 267.566406 C 292.734375 260.695312 291.9375 253.835938 293.648438 247.019531 C 294.917969 241.933594 296.578125 236.945312 298.109375 231.925781 C 298.832031 229.542969 298.5 228.289062 296.339844 227.03125 C 295.25 226.398438 294.015625 225.835938 292.785156 225.652344 C 285.980469 224.644531 279.273438 225.171875 272.707031 227.296875 C 270.671875 227.953125 269.601562 229.269531 268.980469 231.371094 C 267.148438 237.566406 265.589844 243.910156 263.019531 249.800781 C 252.617188 273.652344 241.917969 297.378906 231.226562 321.101562 C 228.992188 326.054688 226.378906 330.835938 223.863281 335.660156 C 223.226562 336.882812 222.296875 337.957031 221.5 339.105469 C 220.863281 338.351562 220.617188 337.832031 220.621094 337.316406 C 220.640625 334.265625 220.273438 331.128906 220.855469 328.179688 C 222.613281 319.265625 224.640625 310.394531 226.773438 301.558594 C 228.535156 294.261719 230.585938 287.03125 232.542969 279.785156 C 233.199219 277.359375 233.207031 275.089844 231.464844 273.046875 C 228.535156 269.632812 222.417969 268.882812 218.785156 271.515625 L 217.179688 272.421875 L 217.492188 269.835938 C 218.257812 264.289062 218.410156 258.761719 216.890625 253.296875 C 214.992188 246.488281 210.132812 242.570312 203.066406 242.785156 C 199.773438 242.886719 196.316406 243.449219 193.265625 244.648438 C 180.445312 249.675781 170.585938 258.574219 162.195312 269.28125 C 161.433594 270.25 160.429688 271.136719 159.355469 271.734375 C 148.507812 277.746094 137.625 283.6875 126.746094 289.648438 L 114.636719 296.285156 C 111.390625 293.1875 108.4375 289.972656 105.089844 287.246094 C 94.863281 278.90625 84.472656 270.773438 74.175781 262.527344 C 65.046875 255.21875 56.203125 247.605469 49.441406 237.925781 C 44.40625 230.726562 41.164062 222.847656 40.851562 213.945312 C 40.457031 202.601562 43.675781 192.234375 49.453125 182.585938 C 56.839844 170.242188 66.914062 160.335938 77.992188 151.359375 C 89.710938 141.875 102.386719 133.820312 115.523438 126.464844 C 133.902344 116.179688 152.804688 107.074219 173.074219 101.0625 C 193.855469 94.898438 214.941406 91.367188 236.691406 93.828125 C 245.242188 94.796875 253.546875 96.753906 261.167969 100.933594 C 267.007812 104.132812 271.796875 108.324219 274.023438 114.871094 C 276.222656 121.3125 276.152344 127.839844 274.632812 134.386719 C 271.539062 147.636719 264.28125 158.5625 255.148438 168.324219 C 240.171875 184.324219 221.902344 195.21875 201.332031 202.414062 C 189.464844 206.566406 177.253906 209.171875 164.714844 210.226562 C 154.480469 211.082031 144.460938 210.175781 134.769531 206.617188 C 128.355469 204.257812 122.765625 200.652344 118.273438 195.417969 C 117.472656 194.480469 116.445312 193.460938 114.949219 194.339844 C 113.484375 195.203125 113.222656 196.597656 113.714844 198.011719 C 114.535156 200.359375 115.292969 202.804688 116.574219 204.902344 C 119.785156 210.171875 124.472656 213.992188 129.632812 217.269531 C 139.546875 223.574219 150.621094 225.695312 162.109375 226.183594 C 179.539062 226.9375 196.546875 224.335938 213.3125 219.660156 C 237.246094 212.984375 258.058594 201.195312 274.75 182.59375 C 288.648438 167.109375 298.574219 149.628906 300.703125 128.523438 C 301.738281 118.222656 300.632812 108.132812 295.8125 98.734375 C 290.578125 88.550781 282.261719 80.980469 272.316406 75.765625 C 257.835938 68.171875 242.203125 63.75 226.074219 63.75 L 209.910156 63.75 C 190.371094 63.75 171.484375 69.347656 153.125 76.027344 C 139.226562 81.085938 125.597656 87.054688 112.367188 93.664062 C 83.558594 108.058594 56.726562 125.417969 34.6875 149.289062 C 23.707031 161.179688 14.410156 174.300781 9.0625 189.75 C 7.5 194.273438 6.015625 199.121094 4.898438 203.796875 M 109.292969 338.847656 C 108.046875 355.566406 100.464844 369.125 88.078125 380.105469 C 81.113281 386.277344 73.121094 390.671875 63.8125 392.214844 C 60.4375 392.773438 56.984375 392.910156 53.710938 391.511719 C 49.042969 389.515625 47.996094 385.371094 47.90625 380.957031 C 47.765625 373.921875 50.230469 367.5625 53.609375 361.511719 C 58.019531 353.621094 64.484375 347.605469 71.390625 341.988281 C 82.265625 333.136719 94.0625 325.640625 106.144531 318.570312 L 107.054688 318.195312 C 108.921875 325.09375 109.8125 331.910156 109.292969 338.847656 Z M 203.636719 266.175781 C 202.753906 271.515625 201.652344 276.859375 200.09375 282.035156 C 194.699219 299.949219 187.773438 317.304688 180.285156 334.433594 C 178.902344 337.601562 176.886719 340.492188 175.136719 343.496094 C 174.867188 343.960938 174.464844 344.363281 174.074219 344.75 C 171.90625 346.890625 169.851562 346.777344 168.757812 343.976562 C 167.484375 340.722656 166.699219 337.238281 166.023438 333.792969 C 165.570312 331.476562 165.679688 329.046875 165.535156 326.675781 C 165.683594 309.824219 170.824219 294.511719 179.546875 280.253906 C 183.140625 274.371094 187.058594 268.769531 193.039062 265.050781 C 194.875 263.90625 196.9375 262.988281 199.019531 262.402344 C 202.207031 261.507812 204.164062 262.980469 203.636719 266.175781 Z M 268 348.179688 L 291.136719 321.167969 C 292.097656 331.199219 275.046875 351.226562 268 348.179688 Z M 341.886719 330.003906 C 340.253906 330.941406 338.472656 331.617188 336.796875 332.484375 C 335.261719 333.277344 334.753906 332.476562 334.710938 331.15625 C 334.679688 330.257812 334.8125 329.320312 335.058594 328.453125 C 338.183594 317.433594 343.929688 308.027344 352.484375 300.378906 L 353.085938 300.070312 C 357.152344 311.453125 352.453125 323.953125 341.886719 330.003906 Z M 341.886719 330.003906 "/>
</g>
</svg>
